<svg width="953" height="1237" viewBox="0 0 953 1237" fill="none" xmlns="http://www.w3.org/2000/svg">
<path d="M0 0H953V114H0V0Z" fill="#001454"/>
<path d="M391.212 48.296C391.212 51.88 390.668 54.856 389.58 57.224C388.492 59.592 386.796 61.736 384.492 63.656L392.46 89H374.7L368.748 67.496H366.54V89H350.412V29.384H372.684C379.084 29.384 383.756 30.888 386.7 33.896C389.708 36.904 391.212 41.704 391.212 48.296ZM369.036 57.416C370.7 57.416 371.884 56.936 372.588 55.976C373.292 55.016 373.644 53.288 373.644 50.792C373.644 48.232 373.292 46.472 372.588 45.512C371.884 44.488 370.732 43.976 369.132 43.976H366.54V57.416H369.036ZM430.105 89H397.849V29.384H431.065L430.105 44.072H414.265V53H427.993V65.672H414.265V75.56H431.065L430.105 89ZM481.014 57.896C481.014 78.632 472.822 89 456.438 89H436.662V29.384H456.822C465.59 29.384 471.798 31.848 475.446 36.776C479.158 41.64 481.014 48.68 481.014 57.896ZM456.15 75.176C459.542 75.176 461.718 73.992 462.678 71.624C463.702 69.192 464.214 65.16 464.214 59.528C464.214 53.832 463.67 49.8 462.582 47.432C461.558 45.064 459.318 43.88 455.862 43.88H452.982V75.176H456.15ZM517.529 89H487.193V29.384H503.609V75.656H518.489L517.529 89ZM539.254 89H522.934V29.384H539.254V89ZM546.005 47.336C546.005 41.64 547.669 37.064 550.997 33.608C554.325 30.152 558.869 28.424 564.629 28.424C570.453 28.424 576.405 29 582.485 30.152L580.565 45.512C574.229 44.04 569.877 43.304 567.509 43.304C564.501 43.304 562.997 44.52 562.997 46.952C562.997 47.912 563.701 48.84 565.109 49.736C566.581 50.632 568.341 51.592 570.389 52.616C572.437 53.576 574.485 54.76 576.533 56.168C578.581 57.512 580.309 59.464 581.717 62.024C583.189 64.584 583.925 67.528 583.925 70.856C583.925 76.936 582.293 81.64 579.029 84.968C575.765 88.296 571.125 89.96 565.109 89.96C559.157 89.96 553.333 89.032 547.637 87.176L548.693 72.872C555.541 74.856 560.309 75.848 562.997 75.848C565.685 75.848 567.029 74.664 567.029 72.296C567.029 71.08 566.293 69.96 564.821 68.936C563.413 67.912 561.685 66.888 559.637 65.864C557.589 64.84 555.509 63.656 553.397 62.312C551.349 60.968 549.589 59.016 548.117 56.456C546.709 53.896 546.005 50.856 546.005 47.336ZM624.318 43.88H613.182V89H596.766V43.88H584.957L585.918 29.384H625.278L624.318 43.88Z" fill="#F93827"/>
<rect y="110" width="953" height="1013" fill="#87C0CD"/>
<rect x="71" y="178" width="638" height="84" rx="13" fill="#F3F9FB"/>
<path d="M102.032 193.528C104.677 193.528 107.451 193.656 110.352 193.912L109.456 203.256C107.536 203.043 106.128 202.936 105.232 202.936C104.379 202.936 103.952 203.32 103.952 204.088V205.24H109.2L108.688 213.176H104.08V235H93.392V213.176H90.576V205.24H93.392V202.04C93.392 196.365 96.272 193.528 102.032 193.528ZM121.294 217.784V235H110.67V204.344H120.014L120.654 206.2H120.91C121.891 205.091 122.873 204.387 123.854 204.088C124.878 203.747 126.521 203.576 128.782 203.576L128.334 213.816H125.39C123.726 213.816 122.617 214.072 122.062 214.584C121.55 215.096 121.294 216.163 121.294 217.784ZM143.533 212.728C142.423 212.728 141.698 213.112 141.357 213.88C141.015 214.605 140.845 215.736 140.845 217.272H146.413V215.736C146.413 213.731 145.453 212.728 143.533 212.728ZM143.789 203.576C148.183 203.576 151.319 204.643 153.197 206.776C155.117 208.867 156.077 211.875 156.077 215.8C156.077 216.312 155.927 218.616 155.629 222.712H141.037C141.037 225.912 142.509 227.512 145.453 227.512C146.861 227.512 149.613 227.021 153.709 226.04L154.605 233.976C151.021 235.085 147.437 235.64 143.853 235.64C139.458 235.64 136.087 234.211 133.741 231.352C131.394 228.451 130.221 224.525 130.221 219.576C130.221 208.909 134.743 203.576 143.789 203.576ZM159.045 227.96V193.976H169.605V224.568C169.605 225.293 169.754 225.805 170.053 226.104C170.394 226.403 170.97 226.552 171.781 226.552L170.949 235.64H167.429C164.613 235.64 162.501 235.064 161.093 233.912C159.728 232.717 159.045 230.733 159.045 227.96ZM173.983 227.96V193.976H184.543V224.568C184.543 225.293 184.692 225.805 184.991 226.104C185.332 226.403 185.908 226.552 186.719 226.552L185.887 235.64H182.367C179.551 235.64 177.439 235.064 176.031 233.912C174.665 232.717 173.983 230.733 173.983 227.96ZM212.024 212.344L211.704 225.592C211.704 226.403 211.896 226.957 212.28 227.256C212.707 227.512 213.411 227.64 214.392 227.64L213.432 235.384C210.957 235.555 209.592 235.64 209.336 235.64C206.179 235.64 204.173 234.552 203.32 232.376H203C201.421 234.552 198.989 235.64 195.704 235.64C193.187 235.64 191.245 234.829 189.88 233.208C188.557 231.587 187.896 229.368 187.896 226.552C187.896 223.011 188.984 220.557 191.16 219.192C193.379 217.827 196.856 216.931 201.592 216.504V214.968C201.592 213.773 200.995 213.176 199.8 213.176C197.752 213.176 194.552 213.795 190.2 215.032L188.6 205.688C194.061 204.28 198.605 203.576 202.232 203.576C205.859 203.576 208.397 204.28 209.848 205.688C211.299 207.096 212.024 209.315 212.024 212.344ZM199.672 228.152C201.251 228.152 202.04 227.32 202.04 225.656V222.52C200.461 222.733 199.331 223.075 198.648 223.544C198.008 223.971 197.688 224.717 197.688 225.784C197.688 227.363 198.349 228.152 199.672 228.152ZM255.003 212.344L254.683 225.336C254.683 226.872 255.216 227.64 256.283 227.64C257.691 227.64 258.843 226.68 259.739 224.76C260.678 222.797 261.147 220.259 261.147 217.144C261.147 212.109 259.675 208.077 256.731 205.048C253.83 201.976 249.755 200.44 244.507 200.44C238.235 200.44 233.456 202.232 230.171 205.816C226.928 209.357 225.307 214.221 225.307 220.408C225.307 226.552 226.886 231.203 230.043 234.36C233.243 237.475 237.616 239.032 243.163 239.032C246.192 239.032 250.032 238.605 254.683 237.752V245.24C250.8 246.179 246.896 246.648 242.971 246.648C239.046 246.648 235.526 246.136 232.411 245.112C229.339 244.088 226.587 242.531 224.155 240.44C221.723 238.392 219.824 235.64 218.459 232.184C217.094 228.728 216.411 224.76 216.411 220.28C216.411 212.344 218.992 205.731 224.155 200.44C229.318 195.149 236.038 192.504 244.315 192.504C252.592 192.504 258.95 194.744 263.387 199.224C267.824 203.704 270.043 209.741 270.043 217.336C270.043 222.627 268.656 227 265.883 230.456C263.11 233.912 259.206 235.64 254.171 235.64H253.595C250.011 235.64 247.579 234.552 246.299 232.376H245.979C244.4 234.552 241.968 235.64 238.683 235.64C236.166 235.64 234.224 234.829 232.859 233.208C231.536 231.587 230.875 229.368 230.875 226.552C230.875 223.011 231.963 220.557 234.139 219.192C236.358 217.827 239.835 216.931 244.571 216.504V214.968C244.571 213.773 243.974 213.176 242.779 213.176C240.902 213.176 237.787 213.795 233.435 215.032L231.899 205.88C237.872 204.344 242.48 203.576 245.723 203.576C249.008 203.576 251.376 204.28 252.827 205.688C254.278 207.096 255.003 209.315 255.003 212.344ZM242.651 228.152C244.23 228.152 245.019 227.32 245.019 225.656V222.52C243.44 222.733 242.31 223.075 241.627 223.544C240.987 223.971 240.667 224.717 240.667 225.784C240.667 227.363 241.328 228.152 242.651 228.152ZM282.763 237.816H289.355C290.123 237.816 290.507 237.475 290.507 236.792V236.536C290.507 235.896 290.123 235.576 289.355 235.576H282.763C282.08 235.576 281.739 235.917 281.739 236.6V236.856C281.739 237.496 282.08 237.816 282.763 237.816ZM285.323 203.576H300.427V210.744H295.819V211.064C297.184 212.259 297.867 213.816 297.867 215.736C297.867 222.563 294.005 225.976 286.283 225.976H283.211C282.443 225.976 282.059 226.339 282.059 227.064C282.059 227.747 282.421 228.088 283.147 228.088H291.851C296.757 228.088 299.211 230.221 299.211 234.488C299.211 237.987 298.037 240.504 295.691 242.04C293.344 243.619 290.101 244.408 285.963 244.408C281.824 244.408 278.688 243.96 276.555 243.064C274.464 242.211 273.419 240.589 273.419 238.2C273.419 236.877 274.251 235.768 275.915 234.872V234.616C273.824 233.464 272.779 231.8 272.779 229.624C272.779 227.064 274.421 225.123 277.707 223.8C276.171 222.691 275.019 221.411 274.251 219.96C273.525 218.467 273.163 216.504 273.163 214.072C273.163 210.701 274.251 208.12 276.427 206.328C278.645 204.493 281.611 203.576 285.323 203.576ZM288.139 215.864C288.139 214.499 287.968 213.517 287.627 212.92C287.328 212.28 286.752 211.96 285.899 211.96C285.045 211.96 284.448 212.28 284.107 212.92C283.808 213.517 283.659 214.456 283.659 215.736C283.659 218.339 284.427 219.64 285.963 219.64C287.413 219.64 288.139 218.381 288.139 215.864ZM328.279 206.584C330.626 204.579 333.207 203.576 336.023 203.576C338.839 203.576 340.802 204.237 341.911 205.56C343.063 206.84 343.639 208.781 343.639 211.384V235H332.759V215.032C332.759 213.965 332.29 213.432 331.351 213.432C330.156 213.432 329.154 213.731 328.343 214.328V235H317.463V215.032C317.463 213.965 316.994 213.432 316.055 213.432C314.86 213.432 313.858 213.731 313.047 214.328V235H302.295V204.344H312.087L312.727 206.584H312.983C315.33 204.579 318.103 203.576 321.303 203.576C324.546 203.576 326.658 204.771 327.639 207.16L328.279 206.584ZM370.587 212.344L370.267 225.592C370.267 226.403 370.459 226.957 370.843 227.256C371.269 227.512 371.973 227.64 372.955 227.64L371.995 235.384C369.52 235.555 368.155 235.64 367.899 235.64C364.741 235.64 362.736 234.552 361.883 232.376H361.562C359.984 234.552 357.552 235.64 354.267 235.64C351.749 235.64 349.808 234.829 348.443 233.208C347.12 231.587 346.459 229.368 346.459 226.552C346.459 223.011 347.547 220.557 349.723 219.192C351.941 217.827 355.419 216.931 360.155 216.504V214.968C360.155 213.773 359.557 213.176 358.363 213.176C356.315 213.176 353.115 213.795 348.763 215.032L347.163 205.688C352.624 204.28 357.168 203.576 360.795 203.576C364.421 203.576 366.96 204.28 368.411 205.688C369.861 207.096 370.587 209.315 370.587 212.344ZM358.235 228.152C359.813 228.152 360.603 227.32 360.603 225.656V222.52C359.024 222.733 357.893 223.075 357.211 223.544C356.571 223.971 356.251 224.717 356.251 225.784C356.251 227.363 356.912 228.152 358.235 228.152ZM386.174 235H375.614V204.664H386.174V235ZM376.446 202.232C375.55 201.464 375.102 200.227 375.102 198.52C375.102 196.813 375.55 195.555 376.446 194.744C377.342 193.933 378.814 193.528 380.862 193.528C382.91 193.528 384.382 193.933 385.278 194.744C386.174 195.555 386.622 196.813 386.622 198.52C386.622 200.184 386.174 201.421 385.278 202.232C384.382 203 382.91 203.384 380.862 203.384C378.814 203.384 377.342 203 376.446 202.232ZM390.233 227.96V193.976H400.793V224.568C400.793 225.293 400.942 225.805 401.241 226.104C401.582 226.403 402.158 226.552 402.969 226.552L402.137 235.64H398.617C395.801 235.64 393.689 235.064 392.281 233.912C390.915 232.717 390.233 230.733 390.233 227.96ZM408.05 230.648C408.05 228.941 408.498 227.683 409.394 226.872C410.29 226.019 411.719 225.592 413.682 225.592C415.645 225.592 417.074 226.019 417.97 226.872C418.866 227.683 419.314 228.984 419.314 230.776C419.314 234.061 417.437 235.704 413.682 235.704C409.927 235.704 408.05 234.019 408.05 230.648ZM437.484 212.92C436.246 212.92 435.414 213.496 434.988 214.648C434.561 215.757 434.348 217.507 434.348 219.896C434.348 222.285 434.54 224.013 434.924 225.08C435.35 226.147 436.204 226.68 437.484 226.68C438.806 226.68 440.513 226.445 442.604 225.976L443.756 234.168C440.812 235.149 438.188 235.64 435.884 235.64C431.83 235.64 428.758 234.275 426.668 231.544C424.62 228.813 423.596 224.995 423.596 220.088C423.596 215.181 424.662 211.213 426.796 208.184C428.929 205.112 432.022 203.576 436.076 203.576C439.105 203.576 441.836 204.088 444.268 205.112L443.116 214.52C440.641 213.453 438.764 212.92 437.484 212.92ZM445.658 219.576C445.658 213.944 446.725 209.869 448.858 207.352C451.034 204.835 454.405 203.576 458.97 203.576C463.578 203.576 466.927 204.813 469.018 207.288C471.109 209.763 472.154 213.837 472.154 219.512C472.154 225.144 471.13 229.24 469.082 231.8C467.034 234.36 463.685 235.64 459.034 235.64C454.383 235.64 450.991 234.36 448.858 231.8C446.725 229.24 445.658 225.165 445.658 219.576ZM461.018 213.496C460.762 212.643 460.079 212.216 458.97 212.216C457.861 212.216 457.157 212.643 456.858 213.496C456.559 214.349 456.41 216.141 456.41 218.872V220.408C456.41 223.437 456.559 225.4 456.858 226.296C457.157 227.192 457.839 227.64 458.906 227.64C460.015 227.64 460.719 227.192 461.018 226.296C461.317 225.4 461.466 223.565 461.466 220.792V218.936C461.466 216.163 461.317 214.349 461.018 213.496ZM501.467 206.584C503.813 204.579 506.395 203.576 509.211 203.576C512.027 203.576 513.989 204.237 515.099 205.56C516.251 206.84 516.827 208.781 516.827 211.384V235H505.947V215.032C505.947 213.965 505.477 213.432 504.539 213.432C503.344 213.432 502.341 213.731 501.531 214.328V235H490.651V215.032C490.651 213.965 490.181 213.432 489.243 213.432C488.048 213.432 487.045 213.731 486.235 214.328V235H475.483V204.344H485.275L485.915 206.584H486.171C488.517 204.579 491.291 203.576 494.491 203.576C497.733 203.576 499.845 204.771 500.827 207.16L501.467 206.584Z" fill="black"/>
<rect x="71" y="307" width="638" height="85" rx="13" fill="#F3F9FB"/>
<path d="M115.024 346.344L114.704 359.592C114.704 360.403 114.896 360.957 115.28 361.256C115.707 361.512 116.411 361.64 117.392 361.64L116.432 369.384C113.957 369.555 112.592 369.64 112.336 369.64C109.179 369.64 107.173 368.552 106.32 366.376H106C104.421 368.552 101.989 369.64 98.704 369.64C96.1867 369.64 94.2453 368.829 92.88 367.208C91.5573 365.587 90.896 363.368 90.896 360.552C90.896 357.011 91.984 354.557 94.16 353.192C96.3787 351.827 99.856 350.931 104.592 350.504V348.968C104.592 347.773 103.995 347.176 102.8 347.176C100.752 347.176 97.552 347.795 93.2 349.032L91.6 339.688C97.0613 338.28 101.605 337.576 105.232 337.576C108.859 337.576 111.397 338.28 112.848 339.688C114.299 341.096 115.024 343.315 115.024 346.344ZM102.672 362.152C104.251 362.152 105.04 361.32 105.04 359.656V356.52C103.461 356.733 102.331 357.075 101.648 357.544C101.008 357.971 100.688 358.717 100.688 359.784C100.688 361.363 101.349 362.152 102.672 362.152ZM130.419 351.784V369H119.795V338.344H129.139L129.779 340.2H130.035C131.016 339.091 131.998 338.387 132.979 338.088C134.003 337.747 135.646 337.576 137.907 337.576L137.459 347.816H134.515C132.851 347.816 131.742 348.072 131.187 348.584C130.675 349.096 130.419 350.163 130.419 351.784ZM157.138 369.064C153.98 369.448 151.228 369.64 148.882 369.64C146.578 369.64 144.764 369.043 143.442 367.848C142.162 366.611 141.522 364.499 141.522 361.512V346.664H138.45V338.728H142.034L142.61 332.84H152.274V338.728H157.97L157.522 346.664H152.21V359.4C152.21 360.296 152.636 360.744 153.49 360.744C153.575 360.744 154.898 360.68 157.458 360.552L157.138 369.064ZM171.114 340.584C173.461 338.579 175.999 337.576 178.73 337.576C181.461 337.576 183.381 338.237 184.49 339.56C185.642 340.84 186.218 342.781 186.218 345.384V369H175.338V349.032C175.338 347.965 174.869 347.432 173.93 347.432C172.735 347.432 171.733 347.731 170.922 348.328V369H160.17V327.976H170.858V340.584H171.114ZM197.661 369.64C192.584 369.64 190.045 366.824 190.045 361.192V338.344H200.925V358.568C200.925 359.635 201.394 360.168 202.333 360.168C203.528 360.168 204.53 359.869 205.341 359.272V338.344H216.093V368.872H205.917V366.632H205.661C203.314 368.637 200.648 369.64 197.661 369.64ZM230.544 351.784V369H219.92V338.344H229.264L229.904 340.2H230.16C231.141 339.091 232.123 338.387 233.104 338.088C234.128 337.747 235.771 337.576 238.032 337.576L237.584 347.816H234.64C232.976 347.816 231.867 348.072 231.312 348.584C230.8 349.096 230.544 350.163 230.544 351.784ZM239.791 339.112C239.791 335.869 240.921 333.309 243.183 331.432C245.487 329.555 248.729 328.616 252.911 328.616C257.092 328.616 260.292 329.555 262.511 331.432C264.772 333.267 265.903 335.848 265.903 339.176C265.903 341.523 265.561 343.293 264.879 344.488C264.196 345.683 262.937 347.005 261.103 348.456V348.712C262.937 349.779 264.26 351.016 265.071 352.424C265.924 353.789 266.351 355.56 266.351 357.736C266.351 365.672 261.849 369.64 252.847 369.64C248.751 369.64 245.487 368.68 243.055 366.76C240.665 364.797 239.471 361.853 239.471 357.928C239.471 353.96 241.177 351.037 244.591 349.16V348.904C242.841 347.368 241.604 345.96 240.879 344.68C240.153 343.4 239.791 341.544 239.791 339.112ZM253.103 361.384C255.151 361.384 256.175 360.296 256.175 358.12C256.175 357.096 255.897 356.264 255.343 355.624C254.788 354.984 253.807 354.152 252.399 353.128C251.289 354.152 250.585 355.005 250.287 355.688C249.988 356.328 249.839 356.989 249.839 357.672C249.839 360.147 250.927 361.384 253.103 361.384ZM253.039 337.32C251.033 337.32 250.031 338.323 250.031 340.328C250.031 341.693 250.543 342.803 251.567 343.656C251.951 343.955 252.591 344.424 253.487 345.064C254.468 344.253 255.172 343.549 255.599 342.952C256.068 342.355 256.303 341.629 256.303 340.776C256.303 338.472 255.215 337.32 253.039 337.32ZM268.262 331.944C272.401 329.725 276.518 328.616 280.614 328.616C284.753 328.616 287.889 329.661 290.022 331.752C292.155 333.843 293.222 336.808 293.222 340.648C293.222 344.445 292.539 347.56 291.174 349.992C289.851 352.424 287.398 355.709 283.814 359.848H293.35V369H269.862L269.35 362.472C273.403 358.163 276.283 354.899 277.99 352.68C279.697 350.461 280.849 348.627 281.446 347.176C282.043 345.725 282.342 344.381 282.342 343.144C282.342 341.864 282.022 340.883 281.382 340.2C280.785 339.517 279.995 339.176 279.014 339.176C278.033 339.176 277.094 339.304 276.198 339.56C274.961 339.859 272.998 340.627 270.31 341.864L268.262 331.944ZM334.316 346.344L333.996 359.336C333.996 360.872 334.529 361.64 335.596 361.64C337.004 361.64 338.156 360.68 339.052 358.76C339.99 356.797 340.46 354.259 340.46 351.144C340.46 346.109 338.988 342.077 336.044 339.048C333.142 335.976 329.068 334.44 323.82 334.44C317.548 334.44 312.769 336.232 309.484 339.816C306.241 343.357 304.62 348.221 304.62 354.408C304.62 360.552 306.198 365.203 309.356 368.36C312.556 371.475 316.929 373.032 322.476 373.032C325.505 373.032 329.345 372.605 333.996 371.752V379.24C330.113 380.179 326.209 380.648 322.284 380.648C318.358 380.648 314.838 380.136 311.724 379.112C308.652 378.088 305.9 376.531 303.468 374.44C301.036 372.392 299.137 369.64 297.772 366.184C296.406 362.728 295.724 358.76 295.724 354.28C295.724 346.344 298.305 339.731 303.468 334.44C308.63 329.149 315.35 326.504 323.628 326.504C331.905 326.504 338.262 328.744 342.7 333.224C347.137 337.704 349.356 343.741 349.356 351.336C349.356 356.627 347.969 361 345.196 364.456C342.422 367.912 338.518 369.64 333.484 369.64H332.908C329.324 369.64 326.892 368.552 325.612 366.376H325.292C323.713 368.552 321.281 369.64 317.996 369.64C315.478 369.64 313.537 368.829 312.172 367.208C310.849 365.587 310.188 363.368 310.188 360.552C310.188 357.011 311.276 354.557 313.452 353.192C315.67 351.827 319.148 350.931 323.884 350.504V348.968C323.884 347.773 323.286 347.176 322.092 347.176C320.214 347.176 317.1 347.795 312.748 349.032L311.212 339.88C317.185 338.344 321.793 337.576 325.036 337.576C328.321 337.576 330.689 338.28 332.14 339.688C333.59 341.096 334.316 343.315 334.316 346.344ZM321.964 362.152C323.542 362.152 324.332 361.32 324.332 359.656V356.52C322.753 356.733 321.622 357.075 320.94 357.544C320.3 357.971 319.98 358.717 319.98 359.784C319.98 361.363 320.641 362.152 321.964 362.152ZM362.075 371.816H368.667C369.435 371.816 369.819 371.475 369.819 370.792V370.536C369.819 369.896 369.435 369.576 368.667 369.576H362.075C361.392 369.576 361.051 369.917 361.051 370.6V370.856C361.051 371.496 361.392 371.816 362.075 371.816ZM364.635 337.576H379.739V344.744H375.131V345.064C376.496 346.259 377.179 347.816 377.179 349.736C377.179 356.563 373.318 359.976 365.595 359.976H362.523C361.755 359.976 361.371 360.339 361.371 361.064C361.371 361.747 361.734 362.088 362.459 362.088H371.163C376.07 362.088 378.523 364.221 378.523 368.488C378.523 371.987 377.35 374.504 375.003 376.04C372.656 377.619 369.414 378.408 365.275 378.408C361.136 378.408 358 377.96 355.867 377.064C353.776 376.211 352.731 374.589 352.731 372.2C352.731 370.877 353.563 369.768 355.227 368.872V368.616C353.136 367.464 352.091 365.8 352.091 363.624C352.091 361.064 353.734 359.123 357.019 357.8C355.483 356.691 354.331 355.411 353.563 353.96C352.838 352.467 352.475 350.504 352.475 348.072C352.475 344.701 353.563 342.12 355.739 340.328C357.958 338.493 360.923 337.576 364.635 337.576ZM367.451 349.864C367.451 348.499 367.28 347.517 366.939 346.92C366.64 346.28 366.064 345.96 365.211 345.96C364.358 345.96 363.76 346.28 363.419 346.92C363.12 347.517 362.971 348.456 362.971 349.736C362.971 352.339 363.739 353.64 365.275 353.64C366.726 353.64 367.451 352.381 367.451 349.864ZM407.592 340.584C409.938 338.579 412.52 337.576 415.336 337.576C418.152 337.576 420.114 338.237 421.224 339.56C422.376 340.84 422.952 342.781 422.952 345.384V369H412.072V349.032C412.072 347.965 411.602 347.432 410.664 347.432C409.469 347.432 408.466 347.731 407.656 348.328V369H396.776V349.032C396.776 347.965 396.306 347.432 395.368 347.432C394.173 347.432 393.17 347.731 392.36 348.328V369H381.608V338.344H391.4L392.04 340.584H392.296C394.642 338.579 397.416 337.576 400.616 337.576C403.858 337.576 405.97 338.771 406.952 341.16L407.592 340.584ZM449.899 346.344L449.579 359.592C449.579 360.403 449.771 360.957 450.155 361.256C450.582 361.512 451.286 361.64 452.267 361.64L451.307 369.384C448.832 369.555 447.467 369.64 447.211 369.64C444.054 369.64 442.048 368.552 441.195 366.376H440.875C439.296 368.552 436.864 369.64 433.579 369.64C431.062 369.64 429.12 368.829 427.755 367.208C426.432 365.587 425.771 363.368 425.771 360.552C425.771 357.011 426.859 354.557 429.035 353.192C431.254 351.827 434.731 350.931 439.467 350.504V348.968C439.467 347.773 438.87 347.176 437.675 347.176C435.627 347.176 432.427 347.795 428.075 349.032L426.475 339.688C431.936 338.28 436.48 337.576 440.107 337.576C443.734 337.576 446.272 338.28 447.723 339.688C449.174 341.096 449.899 343.315 449.899 346.344ZM437.547 362.152C439.126 362.152 439.915 361.32 439.915 359.656V356.52C438.336 356.733 437.206 357.075 436.523 357.544C435.883 357.971 435.563 358.717 435.563 359.784C435.563 361.363 436.224 362.152 437.547 362.152ZM465.486 369H454.926V338.664H465.486V369ZM455.758 336.232C454.862 335.464 454.414 334.227 454.414 332.52C454.414 330.813 454.862 329.555 455.758 328.744C456.654 327.933 458.126 327.528 460.174 327.528C462.222 327.528 463.694 327.933 464.59 328.744C465.486 329.555 465.934 330.813 465.934 332.52C465.934 334.184 465.486 335.421 464.59 336.232C463.694 337 462.222 337.384 460.174 337.384C458.126 337.384 456.654 337 455.758 336.232ZM469.545 361.96V327.976H480.105V358.568C480.105 359.293 480.254 359.805 480.553 360.104C480.894 360.403 481.47 360.552 482.281 360.552L481.449 369.64H477.929C475.113 369.64 473.001 369.064 471.593 367.912C470.228 366.717 469.545 364.733 469.545 361.96ZM487.363 364.648C487.363 362.941 487.811 361.683 488.707 360.872C489.603 360.019 491.032 359.592 492.995 359.592C494.957 359.592 496.387 360.019 497.283 360.872C498.179 361.683 498.627 362.984 498.627 364.776C498.627 368.061 496.749 369.704 492.995 369.704C489.24 369.704 487.363 368.019 487.363 364.648ZM516.796 346.92C515.559 346.92 514.727 347.496 514.3 348.648C513.873 349.757 513.66 351.507 513.66 353.896C513.66 356.285 513.852 358.013 514.236 359.08C514.663 360.147 515.516 360.68 516.796 360.68C518.119 360.68 519.825 360.445 521.916 359.976L523.068 368.168C520.124 369.149 517.5 369.64 515.196 369.64C511.143 369.64 508.071 368.275 505.98 365.544C503.932 362.813 502.908 358.995 502.908 354.088C502.908 349.181 503.975 345.213 506.108 342.184C508.241 339.112 511.335 337.576 515.388 337.576C518.417 337.576 521.148 338.088 523.58 339.112L522.428 348.52C519.953 347.453 518.076 346.92 516.796 346.92ZM524.971 353.576C524.971 347.944 526.037 343.869 528.171 341.352C530.347 338.835 533.717 337.576 538.283 337.576C542.891 337.576 546.24 338.813 548.331 341.288C550.421 343.763 551.467 347.837 551.467 353.512C551.467 359.144 550.443 363.24 548.395 365.8C546.347 368.36 542.997 369.64 538.347 369.64C533.696 369.64 530.304 368.36 528.171 365.8C526.037 363.24 524.971 359.165 524.971 353.576ZM540.331 347.496C540.075 346.643 539.392 346.216 538.283 346.216C537.173 346.216 536.469 346.643 536.171 347.496C535.872 348.349 535.723 350.141 535.723 352.872V354.408C535.723 357.437 535.872 359.4 536.171 360.296C536.469 361.192 537.152 361.64 538.219 361.64C539.328 361.64 540.032 361.192 540.331 360.296C540.629 359.4 540.779 357.565 540.779 354.792V352.936C540.779 350.163 540.629 348.349 540.331 347.496ZM580.779 340.584C583.126 338.579 585.707 337.576 588.523 337.576C591.339 337.576 593.302 338.237 594.411 339.56C595.563 340.84 596.139 342.781 596.139 345.384V369H585.259V349.032C585.259 347.965 584.79 347.432 583.851 347.432C582.656 347.432 581.654 347.731 580.843 348.328V369H569.963V349.032C569.963 347.965 569.494 347.432 568.555 347.432C567.36 347.432 566.358 347.731 565.547 348.328V369H554.795V338.344H564.587L565.227 340.584H565.483C567.83 338.579 570.603 337.576 573.803 337.576C577.046 337.576 579.158 338.771 580.139 341.16L580.779 340.584Z" fill="black"/>
<path d="M0 1123H953V1237H0V1123Z" fill="#001454"/>
<path d="M400.187 1160.19L395.147 1190H382.475L377.099 1160.19H386.171L388.763 1179.73H389.579L391.547 1160.19H400.187ZM418.998 1190H402.87V1160.19H419.478L418.998 1167.54H411.078V1172H417.942V1178.34H411.078V1183.28H419.478L418.998 1190ZM442.676 1169.65C442.676 1171.44 442.404 1172.93 441.86 1174.11C441.316 1175.3 440.468 1176.37 439.316 1177.33L443.3 1190H434.42L431.444 1179.25H430.34V1190H422.276V1160.19H433.412C436.612 1160.19 438.948 1160.94 440.42 1162.45C441.924 1163.95 442.676 1166.35 442.676 1169.65ZM431.588 1174.21C432.42 1174.21 433.012 1173.97 433.364 1173.49C433.716 1173.01 433.892 1172.14 433.892 1170.9C433.892 1169.62 433.716 1168.74 433.364 1168.26C433.012 1167.74 432.436 1167.49 431.636 1167.49H430.34V1174.21H431.588ZM484.921 1190H477.385V1174.45H476.953L474.121 1190H466.393L463.705 1174.45H463.225V1190H455.785L456.793 1160.19H467.593L470.281 1176.32H470.665L473.257 1160.19H483.913L484.921 1190ZM510.247 1190H502.231L501.319 1185.3H495.655L494.743 1190H487.111L492.583 1160.19H504.775L510.247 1190ZM500.407 1179.68L498.727 1169.02H498.391L496.711 1179.68H500.407ZM521.385 1190H513.225V1160.19H521.385V1190ZM524.76 1169.17C524.76 1166.32 525.592 1164.03 527.256 1162.3C528.92 1160.58 531.192 1159.71 534.072 1159.71C536.984 1159.71 539.96 1160 543 1160.58L542.04 1168.26C538.872 1167.52 536.696 1167.15 535.512 1167.15C534.008 1167.15 533.256 1167.76 533.256 1168.98C533.256 1169.46 533.608 1169.92 534.312 1170.37C535.048 1170.82 535.928 1171.3 536.952 1171.81C537.976 1172.29 539 1172.88 540.024 1173.58C541.048 1174.26 541.912 1175.23 542.616 1176.51C543.352 1177.79 543.72 1179.26 543.72 1180.93C543.72 1183.97 542.904 1186.32 541.272 1187.98C539.64 1189.65 537.32 1190.48 534.312 1190.48C531.336 1190.48 528.424 1190.02 525.576 1189.09L526.104 1181.94C529.528 1182.93 531.912 1183.42 533.256 1183.42C534.6 1183.42 535.272 1182.83 535.272 1181.65C535.272 1181.04 534.904 1180.48 534.168 1179.97C533.464 1179.46 532.6 1178.94 531.576 1178.43C530.552 1177.92 529.512 1177.33 528.456 1176.66C527.432 1175.98 526.552 1175.01 525.816 1173.73C525.112 1172.45 524.76 1170.93 524.76 1169.17Z" fill="white"/>
</svg>
