<svg width="901" height="1242" viewBox="0 0 901 1242" fill="none" xmlns="http://www.w3.org/2000/svg">
<path d="M175.24 80H159.112V50.192H175.72L175.24 57.536H167.32V62H174.184V68.336H167.32V73.28H175.72L175.24 80ZM193.446 70.736H178.71V64.304H193.446V70.736ZM226.726 80H219.19V64.448H218.758L215.926 80H208.198L205.51 64.448H205.03V80H197.59L198.598 50.192H209.398L212.086 66.32H212.47L215.062 50.192H225.718L226.726 80ZM252.051 80H244.035L243.123 75.296H237.459L236.547 80H228.915L234.387 50.192H246.579L252.051 80ZM242.211 69.68L240.531 59.024H240.195L238.515 69.68H242.211ZM263.19 80H255.03V50.192H263.19V80ZM283.077 80H267.909V50.192H276.117V73.328H283.557L283.077 80ZM283.956 59.168C283.956 56.32 284.788 54.032 286.452 52.304C288.116 50.576 290.388 49.712 293.268 49.712C296.18 49.712 299.156 50 302.196 50.576L301.236 58.256C298.068 57.52 295.892 57.152 294.708 57.152C293.204 57.152 292.452 57.76 292.452 58.976C292.452 59.456 292.804 59.92 293.508 60.368C294.244 60.816 295.124 61.296 296.148 61.808C297.172 62.288 298.196 62.88 299.22 63.584C300.244 64.256 301.108 65.232 301.812 66.512C302.548 67.792 302.916 69.264 302.916 70.928C302.916 73.968 302.1 76.32 300.468 77.984C298.836 79.648 296.516 80.48 293.508 80.48C290.532 80.48 287.62 80.016 284.771 79.088L285.3 71.936C288.724 72.928 291.108 73.424 292.452 73.424C293.796 73.424 294.468 72.832 294.468 71.648C294.468 71.04 294.1 70.48 293.364 69.968C292.66 69.456 291.796 68.944 290.772 68.432C289.748 67.92 288.708 67.328 287.652 66.656C286.628 65.984 285.748 65.008 285.012 63.728C284.308 62.448 283.956 60.928 283.956 59.168ZM323.254 65.408C323.254 68.224 323.526 70.24 324.07 71.456C324.646 72.64 325.574 73.232 326.854 73.232C328.134 73.232 329.942 72.928 332.278 72.32L333.526 79.088C330.998 80.016 328.454 80.48 325.894 80.48C322.054 80.48 319.254 79.216 317.494 76.688C315.766 74.128 314.902 70.336 314.902 65.312C314.902 60.256 315.814 56.4 317.638 53.744C319.462 51.056 322.438 49.712 326.566 49.712C328.998 49.712 331.318 50.224 333.526 51.248L332.23 58.688C329.734 57.856 327.99 57.44 326.998 57.44C325.59 57.44 324.614 58.064 324.07 59.312C323.526 60.528 323.254 62.56 323.254 65.408ZM337.326 53.312C339.182 50.912 342.206 49.712 346.398 49.712C350.59 49.712 353.582 50.896 355.374 53.264C357.198 55.632 358.109 59.488 358.109 64.832C358.109 70.144 357.182 74.08 355.326 76.64C353.47 79.2 350.462 80.48 346.302 80.48C342.142 80.48 339.15 79.216 337.326 76.688C335.502 74.16 334.59 70.24 334.59 64.928C334.59 59.584 335.502 55.712 337.326 53.312ZM349.854 64.832C349.854 61.888 349.614 59.904 349.134 58.88C348.686 57.824 347.742 57.296 346.302 57.296C344.894 57.296 343.982 57.824 343.566 58.88C343.15 59.904 342.942 61.872 342.942 64.784V65.936C342.942 69.04 343.166 71.088 343.614 72.08C344.094 73.04 345.038 73.52 346.446 73.52C347.886 73.52 348.814 73.056 349.23 72.128C349.646 71.2 349.854 69.28 349.854 66.368V64.832ZM390.226 80H382.69V64.448H382.258L379.426 80H371.698L369.01 64.448H368.53V80H361.09L362.098 50.192H372.898L375.586 66.32H375.97L378.562 50.192H389.218L390.226 80ZM402.543 70.208C402.543 71.2 402.751 71.936 403.167 72.416C403.583 72.896 404.255 73.136 405.183 73.136C406.143 73.136 406.799 72.912 407.151 72.464C407.535 71.984 407.727 71.216 407.727 70.16V50.192H415.983V70.64C415.983 74.064 415.039 76.56 413.151 78.128C411.295 79.696 408.543 80.48 404.895 80.48C401.279 80.48 398.575 79.712 396.783 78.176C395.023 76.608 394.143 74.128 394.143 70.736V50.192H402.543V70.208ZM441.95 80H434.078L427.886 66.128H427.502V80H420.206V50.192H428.318L434.222 64.496H434.606V50.192H441.95V80ZM444.831 59.168C444.831 56.32 445.663 54.032 447.327 52.304C448.991 50.576 451.263 49.712 454.143 49.712C457.055 49.712 460.031 50 463.071 50.576L462.111 58.256C458.943 57.52 456.767 57.152 455.583 57.152C454.079 57.152 453.327 57.76 453.327 58.976C453.327 59.456 453.679 59.92 454.383 60.368C455.119 60.816 455.999 61.296 457.023 61.808C458.047 62.288 459.071 62.88 460.095 63.584C461.119 64.256 461.983 65.232 462.687 66.512C463.423 67.792 463.791 69.264 463.791 70.928C463.791 73.968 462.975 76.32 461.343 77.984C459.711 79.648 457.391 80.48 454.383 80.48C451.407 80.48 448.495 80.016 445.646 79.088L446.175 71.936C449.599 72.928 451.983 73.424 453.327 73.424C454.671 73.424 455.343 72.832 455.343 71.648C455.343 71.04 454.975 70.48 454.239 69.968C453.535 69.456 452.671 68.944 451.647 68.432C450.623 67.92 449.583 67.328 448.527 66.656C447.503 65.984 446.623 65.008 445.887 63.728C445.183 62.448 444.831 60.928 444.831 59.168Z" fill="white"/>
<path d="M211.032 326.528C213.677 326.528 216.451 326.656 219.352 326.912L218.456 336.256C216.536 336.043 215.128 335.936 214.232 335.936C213.379 335.936 212.952 336.32 212.952 337.088V338.24H218.2L217.688 346.176H213.08V368H202.392V346.176H199.576V338.24H202.392V335.04C202.392 329.365 205.272 326.528 211.032 326.528ZM230.294 350.784V368H219.67V337.344H229.014L229.654 339.2H229.91C230.891 338.091 231.873 337.387 232.854 337.088C233.878 336.747 235.521 336.576 237.782 336.576L237.334 346.816H234.39C232.726 346.816 231.617 347.072 231.062 347.584C230.55 348.096 230.294 349.163 230.294 350.784ZM252.533 345.728C251.423 345.728 250.698 346.112 250.357 346.88C250.015 347.605 249.845 348.736 249.845 350.272H255.413V348.736C255.413 346.731 254.453 345.728 252.533 345.728ZM252.789 336.576C257.183 336.576 260.319 337.643 262.197 339.776C264.117 341.867 265.077 344.875 265.077 348.8C265.077 349.312 264.927 351.616 264.629 355.712H250.037C250.037 358.912 251.509 360.512 254.453 360.512C255.861 360.512 258.613 360.021 262.709 359.04L263.605 366.976C260.021 368.085 256.437 368.64 252.853 368.64C248.458 368.64 245.087 367.211 242.741 364.352C240.394 361.451 239.221 357.525 239.221 352.576C239.221 341.909 243.743 336.576 252.789 336.576ZM268.045 360.96V326.976H278.605V357.568C278.605 358.293 278.754 358.805 279.053 359.104C279.394 359.403 279.97 359.552 280.781 359.552L279.949 368.64H276.429C273.613 368.64 271.501 368.064 270.093 366.912C268.728 365.717 268.045 363.733 268.045 360.96ZM282.983 360.96V326.976H293.543V357.568C293.543 358.293 293.692 358.805 293.991 359.104C294.332 359.403 294.908 359.552 295.719 359.552L294.887 368.64H291.367C288.551 368.64 286.439 368.064 285.031 366.912C283.665 365.717 282.983 363.733 282.983 360.96ZM321.024 345.344L320.704 358.592C320.704 359.403 320.896 359.957 321.28 360.256C321.707 360.512 322.411 360.64 323.392 360.64L322.432 368.384C319.957 368.555 318.592 368.64 318.336 368.64C315.179 368.64 313.173 367.552 312.32 365.376H312C310.421 367.552 307.989 368.64 304.704 368.64C302.187 368.64 300.245 367.829 298.88 366.208C297.557 364.587 296.896 362.368 296.896 359.552C296.896 356.011 297.984 353.557 300.16 352.192C302.379 350.827 305.856 349.931 310.592 349.504V347.968C310.592 346.773 309.995 346.176 308.8 346.176C306.752 346.176 303.552 346.795 299.2 348.032L297.6 338.688C303.061 337.28 307.605 336.576 311.232 336.576C314.859 336.576 317.397 337.28 318.848 338.688C320.299 340.096 321.024 342.315 321.024 345.344ZM308.672 361.152C310.251 361.152 311.04 360.32 311.04 358.656V355.52C309.461 355.733 308.331 356.075 307.648 356.544C307.008 356.971 306.688 357.717 306.688 358.784C306.688 360.363 307.349 361.152 308.672 361.152ZM364.003 345.344L363.683 358.336C363.683 359.872 364.216 360.64 365.283 360.64C366.691 360.64 367.843 359.68 368.739 357.76C369.678 355.797 370.147 353.259 370.147 350.144C370.147 345.109 368.675 341.077 365.731 338.048C362.83 334.976 358.755 333.44 353.507 333.44C347.235 333.44 342.456 335.232 339.171 338.816C335.928 342.357 334.307 347.221 334.307 353.408C334.307 359.552 335.886 364.203 339.043 367.36C342.243 370.475 346.616 372.032 352.163 372.032C355.192 372.032 359.032 371.605 363.683 370.752V378.24C359.8 379.179 355.896 379.648 351.971 379.648C348.046 379.648 344.526 379.136 341.411 378.112C338.339 377.088 335.587 375.531 333.155 373.44C330.723 371.392 328.824 368.64 327.459 365.184C326.094 361.728 325.411 357.76 325.411 353.28C325.411 345.344 327.992 338.731 333.155 333.44C338.318 328.149 345.038 325.504 353.315 325.504C361.592 325.504 367.95 327.744 372.387 332.224C376.824 336.704 379.043 342.741 379.043 350.336C379.043 355.627 377.656 360 374.883 363.456C372.11 366.912 368.206 368.64 363.171 368.64H362.595C359.011 368.64 356.579 367.552 355.299 365.376H354.979C353.4 367.552 350.968 368.64 347.683 368.64C345.166 368.64 343.224 367.829 341.859 366.208C340.536 364.587 339.875 362.368 339.875 359.552C339.875 356.011 340.963 353.557 343.139 352.192C345.358 350.827 348.835 349.931 353.571 349.504V347.968C353.571 346.773 352.974 346.176 351.779 346.176C349.902 346.176 346.787 346.795 342.435 348.032L340.899 338.88C346.872 337.344 351.48 336.576 354.723 336.576C358.008 336.576 360.376 337.28 361.827 338.688C363.278 340.096 364.003 342.315 364.003 345.344ZM351.651 361.152C353.23 361.152 354.019 360.32 354.019 358.656V355.52C352.44 355.733 351.31 356.075 350.627 356.544C349.987 356.971 349.667 357.717 349.667 358.784C349.667 360.363 350.328 361.152 351.651 361.152ZM391.763 370.816H398.355C399.123 370.816 399.507 370.475 399.507 369.792V369.536C399.507 368.896 399.123 368.576 398.355 368.576H391.763C391.08 368.576 390.739 368.917 390.739 369.6V369.856C390.739 370.496 391.08 370.816 391.763 370.816ZM394.323 336.576H409.427V343.744H404.819V344.064C406.184 345.259 406.867 346.816 406.867 348.736C406.867 355.563 403.005 358.976 395.283 358.976H392.211C391.443 358.976 391.059 359.339 391.059 360.064C391.059 360.747 391.421 361.088 392.147 361.088H400.851C405.757 361.088 408.211 363.221 408.211 367.488C408.211 370.987 407.037 373.504 404.691 375.04C402.344 376.619 399.101 377.408 394.963 377.408C390.824 377.408 387.688 376.96 385.555 376.064C383.464 375.211 382.419 373.589 382.419 371.2C382.419 369.877 383.251 368.768 384.915 367.872V367.616C382.824 366.464 381.779 364.8 381.779 362.624C381.779 360.064 383.421 358.123 386.707 356.8C385.171 355.691 384.019 354.411 383.251 352.96C382.525 351.467 382.163 349.504 382.163 347.072C382.163 343.701 383.251 341.12 385.427 339.328C387.645 337.493 390.611 336.576 394.323 336.576ZM397.139 348.864C397.139 347.499 396.968 346.517 396.627 345.92C396.328 345.28 395.752 344.96 394.899 344.96C394.045 344.96 393.448 345.28 393.107 345.92C392.808 346.517 392.659 347.456 392.659 348.736C392.659 351.339 393.427 352.64 394.963 352.64C396.413 352.64 397.139 351.381 397.139 348.864ZM437.279 339.584C439.626 337.579 442.207 336.576 445.023 336.576C447.839 336.576 449.802 337.237 450.911 338.56C452.063 339.84 452.639 341.781 452.639 344.384V368H441.759V348.032C441.759 346.965 441.29 346.432 440.351 346.432C439.156 346.432 438.154 346.731 437.343 347.328V368H426.463V348.032C426.463 346.965 425.994 346.432 425.055 346.432C423.86 346.432 422.858 346.731 422.047 347.328V368H411.295V337.344H421.087L421.727 339.584H421.983C424.33 337.579 427.103 336.576 430.303 336.576C433.546 336.576 435.658 337.771 436.639 340.16L437.279 339.584ZM479.587 345.344L479.267 358.592C479.267 359.403 479.459 359.957 479.843 360.256C480.269 360.512 480.973 360.64 481.955 360.64L480.995 368.384C478.52 368.555 477.155 368.64 476.899 368.64C473.741 368.64 471.736 367.552 470.883 365.376H470.562C468.984 367.552 466.552 368.64 463.267 368.64C460.749 368.64 458.808 367.829 457.443 366.208C456.12 364.587 455.459 362.368 455.459 359.552C455.459 356.011 456.547 353.557 458.723 352.192C460.941 350.827 464.419 349.931 469.155 349.504V347.968C469.155 346.773 468.557 346.176 467.363 346.176C465.315 346.176 462.115 346.795 457.763 348.032L456.163 338.688C461.624 337.28 466.168 336.576 469.795 336.576C473.421 336.576 475.96 337.28 477.411 338.688C478.861 340.096 479.587 342.315 479.587 345.344ZM467.235 361.152C468.813 361.152 469.603 360.32 469.603 358.656V355.52C468.024 355.733 466.893 356.075 466.211 356.544C465.571 356.971 465.251 357.717 465.251 358.784C465.251 360.363 465.912 361.152 467.235 361.152ZM495.174 368H484.614V337.664H495.174V368ZM485.446 335.232C484.55 334.464 484.102 333.227 484.102 331.52C484.102 329.813 484.55 328.555 485.446 327.744C486.342 326.933 487.814 326.528 489.862 326.528C491.91 326.528 493.382 326.933 494.278 327.744C495.174 328.555 495.622 329.813 495.622 331.52C495.622 333.184 495.174 334.421 494.278 335.232C493.382 336 491.91 336.384 489.862 336.384C487.814 336.384 486.342 336 485.446 335.232ZM499.233 360.96V326.976H509.793V357.568C509.793 358.293 509.942 358.805 510.241 359.104C510.582 359.403 511.158 359.552 511.969 359.552L511.137 368.64H507.617C504.801 368.64 502.689 368.064 501.281 366.912C499.915 365.717 499.233 363.733 499.233 360.96ZM517.05 363.648C517.05 361.941 517.498 360.683 518.394 359.872C519.29 359.019 520.719 358.592 522.682 358.592C524.645 358.592 526.074 359.019 526.97 359.872C527.866 360.683 528.314 361.984 528.314 363.776C528.314 367.061 526.437 368.704 522.682 368.704C518.927 368.704 517.05 367.019 517.05 363.648ZM546.484 345.92C545.246 345.92 544.414 346.496 543.988 347.648C543.561 348.757 543.348 350.507 543.348 352.896C543.348 355.285 543.54 357.013 543.924 358.08C544.35 359.147 545.204 359.68 546.484 359.68C547.806 359.68 549.513 359.445 551.604 358.976L552.756 367.168C549.812 368.149 547.188 368.64 544.884 368.64C540.83 368.64 537.758 367.275 535.668 364.544C533.62 361.813 532.596 357.995 532.596 353.088C532.596 348.181 533.662 344.213 535.796 341.184C537.929 338.112 541.022 336.576 545.076 336.576C548.105 336.576 550.836 337.088 553.268 338.112L552.116 347.52C549.641 346.453 547.764 345.92 546.484 345.92ZM554.658 352.576C554.658 346.944 555.725 342.869 557.858 340.352C560.034 337.835 563.405 336.576 567.97 336.576C572.578 336.576 575.927 337.813 578.018 340.288C580.109 342.763 581.154 346.837 581.154 352.512C581.154 358.144 580.13 362.24 578.082 364.8C576.034 367.36 572.685 368.64 568.034 368.64C563.383 368.64 559.991 367.36 557.858 364.8C555.725 362.24 554.658 358.165 554.658 352.576ZM570.018 346.496C569.762 345.643 569.079 345.216 567.97 345.216C566.861 345.216 566.157 345.643 565.858 346.496C565.559 347.349 565.41 349.141 565.41 351.872V353.408C565.41 356.437 565.559 358.4 565.858 359.296C566.157 360.192 566.839 360.64 567.906 360.64C569.015 360.64 569.719 360.192 570.018 359.296C570.317 358.4 570.466 356.565 570.466 353.792V351.936C570.466 349.163 570.317 347.349 570.018 346.496ZM610.467 339.584C612.813 337.579 615.395 336.576 618.211 336.576C621.027 336.576 622.989 337.237 624.099 338.56C625.251 339.84 625.827 341.781 625.827 344.384V368H614.947V348.032C614.947 346.965 614.477 346.432 613.539 346.432C612.344 346.432 611.341 346.731 610.531 347.328V368H599.651V348.032C599.651 346.965 599.181 346.432 598.243 346.432C597.048 346.432 596.045 346.731 595.235 347.328V368H584.483V337.344H594.275L594.915 339.584H595.171C597.517 337.579 600.291 336.576 603.491 336.576C606.733 336.576 608.845 337.771 609.827 340.16L610.467 339.584Z" fill="black"/>
<path d="M23 0H864V115H23V0Z" fill="#001454"/>
<rect x="23" y="111" width="841" height="1016" fill="#87C0CD"/>
<rect x="90" y="162" width="720" height="84" rx="13" fill="#F3F9FB"/>
<rect x="93" y="291" width="720" height="86" rx="13" fill="#F3F9FB"/>
<path d="M133.493 201.344L133.173 214.592C133.173 215.403 133.365 215.957 133.749 216.256C134.175 216.512 134.879 216.64 135.861 216.64L134.901 224.384C132.426 224.555 131.061 224.64 130.805 224.64C127.647 224.64 125.642 223.552 124.789 221.376H124.469C122.89 223.552 120.458 224.64 117.173 224.64C114.655 224.64 112.714 223.829 111.349 222.208C110.026 220.587 109.365 218.368 109.365 215.552C109.365 212.011 110.453 209.557 112.629 208.192C114.847 206.827 118.325 205.931 123.061 205.504V203.968C123.061 202.773 122.463 202.176 121.269 202.176C119.221 202.176 116.021 202.795 111.669 204.032L110.069 194.688C115.53 193.28 120.074 192.576 123.701 192.576C127.327 192.576 129.866 193.28 131.317 194.688C132.767 196.096 133.493 198.315 133.493 201.344ZM121.141 217.152C122.719 217.152 123.509 216.32 123.509 214.656V211.52C121.93 211.733 120.799 212.075 120.117 212.544C119.477 212.971 119.157 213.717 119.157 214.784C119.157 216.363 119.818 217.152 121.141 217.152ZM148.888 206.784V224H138.264V193.344H147.608L148.248 195.2H148.504C149.485 194.091 150.466 193.387 151.448 193.088C152.472 192.747 154.114 192.576 156.376 192.576L155.928 202.816H152.984C151.32 202.816 150.21 203.072 149.656 203.584C149.144 204.096 148.888 205.163 148.888 206.784ZM175.606 224.064C172.449 224.448 169.697 224.64 167.35 224.64C165.046 224.64 163.233 224.043 161.91 222.848C160.63 221.611 159.99 219.499 159.99 216.512V201.664H156.918V193.728H160.502L161.078 187.84H170.742V193.728H176.438L175.99 201.664H170.678V214.4C170.678 215.296 171.105 215.744 171.958 215.744C172.044 215.744 173.366 215.68 175.926 215.552L175.606 224.064ZM189.583 195.584C191.929 193.579 194.468 192.576 197.199 192.576C199.929 192.576 201.849 193.237 202.959 194.56C204.111 195.84 204.687 197.781 204.687 200.384V224H193.807V204.032C193.807 202.965 193.337 202.432 192.399 202.432C191.204 202.432 190.201 202.731 189.391 203.328V224H178.639V182.976H189.327V195.584H189.583ZM216.13 224.64C211.052 224.64 208.514 221.824 208.514 216.192V193.344H219.394V213.568C219.394 214.635 219.863 215.168 220.802 215.168C221.996 215.168 222.999 214.869 223.81 214.272V193.344H234.562V223.872H224.386V221.632H224.13C221.783 223.637 219.116 224.64 216.13 224.64ZM249.013 206.784V224H238.389V193.344H247.733L248.373 195.2H248.629C249.61 194.091 250.591 193.387 251.573 193.088C252.597 192.747 254.239 192.576 256.501 192.576L256.053 202.816H253.109C251.445 202.816 250.335 203.072 249.781 203.584C249.269 204.096 249.013 205.163 249.013 206.784ZM258.259 194.112C258.259 190.869 259.39 188.309 261.651 186.432C263.955 184.555 267.198 183.616 271.379 183.616C275.561 183.616 278.761 184.555 280.979 186.432C283.241 188.267 284.371 190.848 284.371 194.176C284.371 196.523 284.03 198.293 283.347 199.488C282.665 200.683 281.406 202.005 279.571 203.456V203.712C281.406 204.779 282.729 206.016 283.539 207.424C284.393 208.789 284.819 210.56 284.819 212.736C284.819 220.672 280.318 224.64 271.315 224.64C267.219 224.64 263.955 223.68 261.523 221.76C259.134 219.797 257.939 216.853 257.939 212.928C257.939 208.96 259.646 206.037 263.059 204.16V203.904C261.31 202.368 260.073 200.96 259.347 199.68C258.622 198.4 258.259 196.544 258.259 194.112ZM271.571 216.384C273.619 216.384 274.643 215.296 274.643 213.12C274.643 212.096 274.366 211.264 273.811 210.624C273.257 209.984 272.275 209.152 270.867 208.128C269.758 209.152 269.054 210.005 268.755 210.688C268.457 211.328 268.307 211.989 268.307 212.672C268.307 215.147 269.395 216.384 271.571 216.384ZM271.507 192.32C269.502 192.32 268.499 193.323 268.499 195.328C268.499 196.693 269.011 197.803 270.035 198.656C270.419 198.955 271.059 199.424 271.955 200.064C272.937 199.253 273.641 198.549 274.067 197.952C274.537 197.355 274.771 196.629 274.771 195.776C274.771 193.472 273.683 192.32 271.507 192.32ZM286.731 186.944C290.869 184.725 294.987 183.616 299.083 183.616C303.221 183.616 306.357 184.661 308.491 186.752C310.624 188.843 311.691 191.808 311.691 195.648C311.691 199.445 311.008 202.56 309.643 204.992C308.32 207.424 305.867 210.709 302.283 214.848H311.819V224H288.331L287.819 217.472C291.872 213.163 294.752 209.899 296.459 207.68C298.165 205.461 299.317 203.627 299.915 202.176C300.512 200.725 300.811 199.381 300.811 198.144C300.811 196.864 300.491 195.883 299.851 195.2C299.253 194.517 298.464 194.176 297.483 194.176C296.501 194.176 295.563 194.304 294.667 194.56C293.429 194.859 291.467 195.627 288.779 196.864L286.731 186.944ZM352.784 201.344L352.464 214.336C352.464 215.872 352.998 216.64 354.064 216.64C355.472 216.64 356.624 215.68 357.52 213.76C358.459 211.797 358.928 209.259 358.928 206.144C358.928 201.109 357.456 197.077 354.512 194.048C351.611 190.976 347.536 189.44 342.288 189.44C336.016 189.44 331.238 191.232 327.952 194.816C324.71 198.357 323.088 203.221 323.088 209.408C323.088 215.552 324.667 220.203 327.824 223.36C331.024 226.475 335.398 228.032 340.944 228.032C343.974 228.032 347.814 227.605 352.464 226.752V234.24C348.582 235.179 344.678 235.648 340.752 235.648C336.827 235.648 333.307 235.136 330.192 234.112C327.12 233.088 324.368 231.531 321.936 229.44C319.504 227.392 317.606 224.64 316.24 221.184C314.875 217.728 314.192 213.76 314.192 209.28C314.192 201.344 316.774 194.731 321.936 189.44C327.099 184.149 333.819 181.504 342.096 181.504C350.374 181.504 356.731 183.744 361.168 188.224C365.606 192.704 367.824 198.741 367.824 206.336C367.824 211.627 366.438 216 363.664 219.456C360.891 222.912 356.987 224.64 351.952 224.64H351.376C347.792 224.64 345.36 223.552 344.08 221.376H343.76C342.182 223.552 339.75 224.64 336.464 224.64C333.947 224.64 332.006 223.829 330.64 222.208C329.318 220.587 328.656 218.368 328.656 215.552C328.656 212.011 329.744 209.557 331.92 208.192C334.139 206.827 337.616 205.931 342.352 205.504V203.968C342.352 202.773 341.755 202.176 340.56 202.176C338.683 202.176 335.568 202.795 331.216 204.032L329.68 194.88C335.654 193.344 340.262 192.576 343.504 192.576C346.79 192.576 349.158 193.28 350.608 194.688C352.059 196.096 352.784 198.315 352.784 201.344ZM340.432 217.152C342.011 217.152 342.8 216.32 342.8 214.656V211.52C341.222 211.733 340.091 212.075 339.408 212.544C338.768 212.971 338.448 213.717 338.448 214.784C338.448 216.363 339.11 217.152 340.432 217.152ZM380.544 226.816H387.136C387.904 226.816 388.288 226.475 388.288 225.792V225.536C388.288 224.896 387.904 224.576 387.136 224.576H380.544C379.861 224.576 379.52 224.917 379.52 225.6V225.856C379.52 226.496 379.861 226.816 380.544 226.816ZM383.104 192.576H398.208V199.744H393.6V200.064C394.965 201.259 395.648 202.816 395.648 204.736C395.648 211.563 391.786 214.976 384.064 214.976H380.992C380.224 214.976 379.84 215.339 379.84 216.064C379.84 216.747 380.202 217.088 380.928 217.088H389.632C394.538 217.088 396.992 219.221 396.992 223.488C396.992 226.987 395.818 229.504 393.472 231.04C391.125 232.619 387.882 233.408 383.744 233.408C379.605 233.408 376.469 232.96 374.336 232.064C372.245 231.211 371.2 229.589 371.2 227.2C371.2 225.877 372.032 224.768 373.696 223.872V223.616C371.605 222.464 370.56 220.8 370.56 218.624C370.56 216.064 372.202 214.123 375.488 212.8C373.952 211.691 372.8 210.411 372.032 208.96C371.306 207.467 370.944 205.504 370.944 203.072C370.944 199.701 372.032 197.12 374.208 195.328C376.426 193.493 379.392 192.576 383.104 192.576ZM385.92 204.864C385.92 203.499 385.749 202.517 385.408 201.92C385.109 201.28 384.533 200.96 383.68 200.96C382.826 200.96 382.229 201.28 381.888 201.92C381.589 202.517 381.44 203.456 381.44 204.736C381.44 207.339 382.208 208.64 383.744 208.64C385.194 208.64 385.92 207.381 385.92 204.864ZM426.06 195.584C428.407 193.579 430.988 192.576 433.804 192.576C436.62 192.576 438.583 193.237 439.692 194.56C440.844 195.84 441.42 197.781 441.42 200.384V224H430.54V204.032C430.54 202.965 430.071 202.432 429.132 202.432C427.938 202.432 426.935 202.731 426.124 203.328V224H415.244V204.032C415.244 202.965 414.775 202.432 413.836 202.432C412.642 202.432 411.639 202.731 410.828 203.328V224H400.076V193.344H409.868L410.508 195.584H410.764C413.111 193.579 415.884 192.576 419.084 192.576C422.327 192.576 424.439 193.771 425.42 196.16L426.06 195.584ZM468.368 201.344L468.048 214.592C468.048 215.403 468.24 215.957 468.624 216.256C469.05 216.512 469.754 216.64 470.736 216.64L469.776 224.384C467.301 224.555 465.936 224.64 465.68 224.64C462.522 224.64 460.517 223.552 459.664 221.376H459.344C457.765 223.552 455.333 224.64 452.048 224.64C449.53 224.64 447.589 223.829 446.224 222.208C444.901 220.587 444.24 218.368 444.24 215.552C444.24 212.011 445.328 209.557 447.504 208.192C449.722 206.827 453.2 205.931 457.936 205.504V203.968C457.936 202.773 457.338 202.176 456.144 202.176C454.096 202.176 450.896 202.795 446.544 204.032L444.944 194.688C450.405 193.28 454.949 192.576 458.576 192.576C462.202 192.576 464.741 193.28 466.192 194.688C467.642 196.096 468.368 198.315 468.368 201.344ZM456.016 217.152C457.594 217.152 458.384 216.32 458.384 214.656V211.52C456.805 211.733 455.674 212.075 454.992 212.544C454.352 212.971 454.032 213.717 454.032 214.784C454.032 216.363 454.693 217.152 456.016 217.152ZM483.955 224H473.395V193.664H483.955V224ZM474.227 191.232C473.331 190.464 472.883 189.227 472.883 187.52C472.883 185.813 473.331 184.555 474.227 183.744C475.123 182.933 476.595 182.528 478.643 182.528C480.691 182.528 482.163 182.933 483.059 183.744C483.955 184.555 484.403 185.813 484.403 187.52C484.403 189.184 483.955 190.421 483.059 191.232C482.163 192 480.691 192.384 478.643 192.384C476.595 192.384 475.123 192 474.227 191.232ZM488.014 216.96V182.976H498.574V213.568C498.574 214.293 498.723 214.805 499.022 215.104C499.363 215.403 499.939 215.552 500.75 215.552L499.918 224.64H496.398C493.582 224.64 491.47 224.064 490.062 222.912C488.696 221.717 488.014 219.733 488.014 216.96ZM505.831 219.648C505.831 217.941 506.279 216.683 507.175 215.872C508.071 215.019 509.501 214.592 511.463 214.592C513.426 214.592 514.855 215.019 515.751 215.872C516.647 216.683 517.095 217.984 517.095 219.776C517.095 223.061 515.218 224.704 511.463 224.704C507.709 224.704 505.831 223.019 505.831 219.648ZM535.265 201.92C534.027 201.92 533.195 202.496 532.769 203.648C532.342 204.757 532.129 206.507 532.129 208.896C532.129 211.285 532.321 213.013 532.705 214.08C533.131 215.147 533.985 215.68 535.265 215.68C536.587 215.68 538.294 215.445 540.385 214.976L541.537 223.168C538.593 224.149 535.969 224.64 533.665 224.64C529.611 224.64 526.539 223.275 524.449 220.544C522.401 217.813 521.377 213.995 521.377 209.088C521.377 204.181 522.443 200.213 524.577 197.184C526.71 194.112 529.803 192.576 533.857 192.576C536.886 192.576 539.617 193.088 542.049 194.112L540.897 203.52C538.422 202.453 536.545 201.92 535.265 201.92ZM543.439 208.576C543.439 202.944 544.506 198.869 546.639 196.352C548.815 193.835 552.186 192.576 556.751 192.576C561.359 192.576 564.709 193.813 566.799 196.288C568.89 198.763 569.935 202.837 569.935 208.512C569.935 214.144 568.911 218.24 566.863 220.8C564.815 223.36 561.466 224.64 556.815 224.64C552.165 224.64 548.773 223.36 546.639 220.8C544.506 218.24 543.439 214.165 543.439 208.576ZM558.799 202.496C558.543 201.643 557.861 201.216 556.751 201.216C555.642 201.216 554.938 201.643 554.639 202.496C554.341 203.349 554.191 205.141 554.191 207.872V209.408C554.191 212.437 554.341 214.4 554.639 215.296C554.938 216.192 555.621 216.64 556.687 216.64C557.797 216.64 558.501 216.192 558.799 215.296C559.098 214.4 559.247 212.565 559.247 209.792V207.936C559.247 205.163 559.098 203.349 558.799 202.496ZM599.248 195.584C601.594 193.579 604.176 192.576 606.992 192.576C609.808 192.576 611.77 193.237 612.88 194.56C614.032 195.84 614.608 197.781 614.608 200.384V224H603.728V204.032C603.728 202.965 603.258 202.432 602.32 202.432C601.125 202.432 600.122 202.731 599.312 203.328V224H588.432V204.032C588.432 202.965 587.962 202.432 587.024 202.432C585.829 202.432 584.826 202.731 584.016 203.328V224H573.264V193.344H583.056L583.696 195.584H583.952C586.298 193.579 589.072 192.576 592.272 192.576C595.514 192.576 597.626 193.771 598.608 196.16L599.248 195.584Z" fill="black"/>
<path d="M23 1127H864V1242H23V1127Z" fill="#001454"/>
<path d="M369.187 1164.19L364.147 1194H351.475L346.099 1164.19H355.171L357.763 1183.73H358.579L360.547 1164.19H369.187ZM387.998 1194H371.87V1164.19H388.478L387.998 1171.54H380.078V1176H386.942V1182.34H380.078V1187.28H388.478L387.998 1194ZM411.676 1173.65C411.676 1175.44 411.404 1176.93 410.86 1178.11C410.316 1179.3 409.468 1180.37 408.316 1181.33L412.3 1194H403.42L400.444 1183.25H399.34V1194H391.276V1164.19H402.412C405.612 1164.19 407.948 1164.94 409.42 1166.45C410.924 1167.95 411.676 1170.35 411.676 1173.65ZM400.588 1178.21C401.42 1178.21 402.012 1177.97 402.364 1177.49C402.716 1177.01 402.892 1176.14 402.892 1174.9C402.892 1173.62 402.716 1172.74 402.364 1172.26C402.012 1171.74 401.436 1171.49 400.636 1171.49H399.34V1178.21H400.588ZM453.921 1194H446.385V1178.45H445.953L443.121 1194H435.393L432.705 1178.45H432.225V1194H424.785L425.793 1164.19H436.593L439.281 1180.32H439.665L442.257 1164.19H452.913L453.921 1194ZM479.247 1194H471.231L470.319 1189.3H464.655L463.743 1194H456.111L461.583 1164.19H473.775L479.247 1194ZM469.407 1183.68L467.727 1173.02H467.391L465.711 1183.68H469.407ZM490.385 1194H482.225V1164.19H490.385V1194ZM493.76 1173.17C493.76 1170.32 494.592 1168.03 496.256 1166.3C497.92 1164.58 500.192 1163.71 503.072 1163.71C505.984 1163.71 508.96 1164 512 1164.58L511.04 1172.26C507.872 1171.52 505.696 1171.15 504.512 1171.15C503.008 1171.15 502.256 1171.76 502.256 1172.98C502.256 1173.46 502.608 1173.92 503.312 1174.37C504.048 1174.82 504.928 1175.3 505.952 1175.81C506.976 1176.29 508 1176.88 509.024 1177.58C510.048 1178.26 510.912 1179.23 511.616 1180.51C512.352 1181.79 512.72 1183.26 512.72 1184.93C512.72 1187.97 511.904 1190.32 510.272 1191.98C508.64 1193.65 506.32 1194.48 503.312 1194.48C500.336 1194.48 497.424 1194.02 494.576 1193.09L495.104 1185.94C498.528 1186.93 500.912 1187.42 502.256 1187.42C503.6 1187.42 504.272 1186.83 504.272 1185.65C504.272 1185.04 503.904 1184.48 503.168 1183.97C502.464 1183.46 501.6 1182.94 500.576 1182.43C499.552 1181.92 498.512 1181.33 497.456 1180.66C496.432 1179.98 495.552 1179.01 494.816 1177.73C494.112 1176.45 493.76 1174.93 493.76 1173.17Z" fill="white"/>
<path d="M184.933 90H152.677V30.384H185.893L184.933 45.072H169.093V54H182.821V66.672H169.093V76.56H185.893L184.933 90ZM221.346 71.472H191.874V58.608H221.346V71.472ZM287.904 90H272.832V58.896H271.968L266.304 90H250.848L245.472 58.896H244.512V90H229.632L231.648 30.384H253.248L258.624 62.64H259.392L264.576 30.384H285.888L287.904 90ZM338.556 90H322.524L320.7 80.592H309.372L307.548 90H292.284L303.228 30.384H327.612L338.556 90ZM318.876 69.36L315.516 48.048H314.844L311.484 69.36H318.876ZM360.832 90H344.512V30.384H360.832V90ZM400.607 90H370.271V30.384H386.687V76.656H401.567L400.607 90ZM402.364 48.336C402.364 42.64 404.028 38.064 407.356 34.608C410.684 31.152 415.228 29.424 420.988 29.424C426.812 29.424 432.764 30 438.844 31.152L436.924 46.512C430.588 45.04 426.236 44.304 423.868 44.304C420.86 44.304 419.356 45.52 419.356 47.952C419.356 48.912 420.06 49.84 421.468 50.736C422.94 51.632 424.7 52.592 426.748 53.616C428.796 54.576 430.844 55.76 432.892 57.168C434.94 58.512 436.668 60.464 438.076 63.024C439.548 65.584 440.284 68.528 440.284 71.856C440.284 77.936 438.652 82.64 435.388 85.968C432.124 89.296 427.484 90.96 421.468 90.96C415.516 90.96 409.692 90.032 403.996 88.176L405.052 73.872C411.9 75.856 416.668 76.848 419.356 76.848C422.044 76.848 423.388 75.664 423.388 73.296C423.388 72.08 422.652 70.96 421.18 69.936C419.772 68.912 418.044 67.888 415.996 66.864C413.948 65.84 411.868 64.656 409.756 63.312C407.708 61.968 405.948 60.016 404.476 57.456C403.068 54.896 402.364 51.856 402.364 48.336ZM480.961 60.816C480.961 66.448 481.505 70.48 482.593 72.912C483.745 75.28 485.601 76.464 488.161 76.464C490.721 76.464 494.337 75.856 499.009 74.64L501.505 88.176C496.449 90.032 491.361 90.96 486.241 90.96C478.561 90.96 472.961 88.432 469.441 83.376C465.985 78.256 464.257 70.672 464.257 60.624C464.257 50.512 466.081 42.8 469.729 37.488C473.377 32.112 479.329 29.424 487.585 29.424C492.449 29.424 497.089 30.448 501.505 32.496L498.913 47.376C493.921 45.712 490.433 44.88 488.449 44.88C485.633 44.88 483.681 46.128 482.593 48.624C481.505 51.056 480.961 55.12 480.961 60.816ZM509.104 36.624C512.816 31.824 518.864 29.424 527.248 29.424C535.632 29.424 541.616 31.792 545.2 36.528C548.848 41.264 550.672 48.976 550.672 59.664C550.672 70.288 548.816 78.16 545.104 83.28C541.392 88.4 535.376 90.96 527.056 90.96C518.736 90.96 512.752 88.432 509.104 83.376C505.456 78.32 503.632 70.48 503.632 59.856C503.632 49.168 505.456 41.424 509.104 36.624ZM534.16 59.664C534.16 53.776 533.68 49.808 532.72 47.76C531.824 45.648 529.936 44.592 527.056 44.592C524.24 44.592 522.416 45.648 521.584 47.76C520.752 49.808 520.336 53.744 520.336 59.568V61.872C520.336 68.08 520.784 72.176 521.68 74.16C522.64 76.08 524.528 77.04 527.344 77.04C530.224 77.04 532.08 76.112 532.912 74.256C533.744 72.4 534.16 68.56 534.16 62.736V59.664ZM614.904 90H599.832V58.896H598.968L593.304 90H577.848L572.472 58.896H571.512V90H556.632L558.648 30.384H580.248L585.624 62.64H586.392L591.576 30.384H612.888L614.904 90ZM639.54 70.416C639.54 72.4 639.956 73.872 640.788 74.832C641.62 75.792 642.964 76.272 644.82 76.272C646.74 76.272 648.052 75.824 648.756 74.928C649.524 73.968 649.908 72.432 649.908 70.32V30.384H666.42V71.28C666.42 78.128 664.532 83.12 660.756 86.256C657.044 89.392 651.54 90.96 644.244 90.96C637.012 90.96 631.604 89.424 628.02 86.352C624.5 83.216 622.74 78.256 622.74 71.472V30.384H639.54V70.416ZM718.353 90H702.609L690.225 62.256H689.457V90H674.865V30.384H691.089L702.897 58.992H703.665V30.384H718.353V90ZM724.114 48.336C724.114 42.64 725.778 38.064 729.106 34.608C732.434 31.152 736.978 29.424 742.738 29.424C748.562 29.424 754.514 30 760.594 31.152L758.674 46.512C752.338 45.04 747.986 44.304 745.618 44.304C742.61 44.304 741.106 45.52 741.106 47.952C741.106 48.912 741.81 49.84 743.218 50.736C744.69 51.632 746.45 52.592 748.498 53.616C750.546 54.576 752.594 55.76 754.642 57.168C756.69 58.512 758.418 60.464 759.826 63.024C761.298 65.584 762.034 68.528 762.034 71.856C762.034 77.936 760.402 82.64 757.138 85.968C753.874 89.296 749.234 90.96 743.218 90.96C737.266 90.96 731.442 90.032 725.746 88.176L726.802 73.872C733.65 75.856 738.418 76.848 741.106 76.848C743.794 76.848 745.138 75.664 745.138 73.296C745.138 72.08 744.402 70.96 742.93 69.936C741.522 68.912 739.794 67.888 737.746 66.864C735.698 65.84 733.618 64.656 731.506 63.312C729.458 61.968 727.698 60.016 726.226 57.456C724.818 54.896 724.114 51.856 724.114 48.336Z" fill="#16C47F"/>
<path d="M124.032 310.528C126.677 310.528 129.451 310.656 132.352 310.912L131.456 320.256C129.536 320.043 128.128 319.936 127.232 319.936C126.379 319.936 125.952 320.32 125.952 321.088V322.24H131.2L130.688 330.176H126.08V352H115.392V330.176H112.576V322.24H115.392V319.04C115.392 313.365 118.272 310.528 124.032 310.528ZM143.294 334.784V352H132.67V321.344H142.014L142.654 323.2H142.91C143.891 322.091 144.873 321.387 145.854 321.088C146.878 320.747 148.521 320.576 150.782 320.576L150.334 330.816H147.39C145.726 330.816 144.617 331.072 144.062 331.584C143.55 332.096 143.294 333.163 143.294 334.784ZM165.533 329.728C164.423 329.728 163.698 330.112 163.357 330.88C163.015 331.605 162.845 332.736 162.845 334.272H168.413V332.736C168.413 330.731 167.453 329.728 165.533 329.728ZM165.789 320.576C170.183 320.576 173.319 321.643 175.197 323.776C177.117 325.867 178.077 328.875 178.077 332.8C178.077 333.312 177.927 335.616 177.629 339.712H163.037C163.037 342.912 164.509 344.512 167.453 344.512C168.861 344.512 171.613 344.021 175.709 343.04L176.605 350.976C173.021 352.085 169.437 352.64 165.853 352.64C161.458 352.64 158.087 351.211 155.741 348.352C153.394 345.451 152.221 341.525 152.221 336.576C152.221 325.909 156.743 320.576 165.789 320.576ZM181.045 344.96V310.976H191.605V341.568C191.605 342.293 191.754 342.805 192.053 343.104C192.394 343.403 192.97 343.552 193.781 343.552L192.949 352.64H189.429C186.613 352.64 184.501 352.064 183.093 350.912C181.728 349.717 181.045 347.733 181.045 344.96ZM195.983 344.96V310.976H206.543V341.568C206.543 342.293 206.692 342.805 206.991 343.104C207.332 343.403 207.908 343.552 208.719 343.552L207.887 352.64H204.367C201.551 352.64 199.439 352.064 198.031 350.912C196.665 349.717 195.983 347.733 195.983 344.96ZM234.024 329.344L233.704 342.592C233.704 343.403 233.896 343.957 234.28 344.256C234.707 344.512 235.411 344.64 236.392 344.64L235.432 352.384C232.957 352.555 231.592 352.64 231.336 352.64C228.179 352.64 226.173 351.552 225.32 349.376H225C223.421 351.552 220.989 352.64 217.704 352.64C215.187 352.64 213.245 351.829 211.88 350.208C210.557 348.587 209.896 346.368 209.896 343.552C209.896 340.011 210.984 337.557 213.16 336.192C215.379 334.827 218.856 333.931 223.592 333.504V331.968C223.592 330.773 222.995 330.176 221.8 330.176C219.752 330.176 216.552 330.795 212.2 332.032L210.6 322.688C216.061 321.28 220.605 320.576 224.232 320.576C227.859 320.576 230.397 321.28 231.848 322.688C233.299 324.096 234.024 326.315 234.024 329.344ZM221.672 345.152C223.251 345.152 224.04 344.32 224.04 342.656V339.52C222.461 339.733 221.331 340.075 220.648 340.544C220.008 340.971 219.688 341.717 219.688 342.784C219.688 344.363 220.349 345.152 221.672 345.152ZM277.003 329.344L276.683 342.336C276.683 343.872 277.216 344.64 278.283 344.64C279.691 344.64 280.843 343.68 281.739 341.76C282.678 339.797 283.147 337.259 283.147 334.144C283.147 329.109 281.675 325.077 278.731 322.048C275.83 318.976 271.755 317.44 266.507 317.44C260.235 317.44 255.456 319.232 252.171 322.816C248.928 326.357 247.307 331.221 247.307 337.408C247.307 343.552 248.886 348.203 252.043 351.36C255.243 354.475 259.616 356.032 265.163 356.032C268.192 356.032 272.032 355.605 276.683 354.752V362.24C272.8 363.179 268.896 363.648 264.971 363.648C261.046 363.648 257.526 363.136 254.411 362.112C251.339 361.088 248.587 359.531 246.155 357.44C243.723 355.392 241.824 352.64 240.459 349.184C239.094 345.728 238.411 341.76 238.411 337.28C238.411 329.344 240.992 322.731 246.155 317.44C251.318 312.149 258.038 309.504 266.315 309.504C274.592 309.504 280.95 311.744 285.387 316.224C289.824 320.704 292.043 326.741 292.043 334.336C292.043 339.627 290.656 344 287.883 347.456C285.11 350.912 281.206 352.64 276.171 352.64H275.595C272.011 352.64 269.579 351.552 268.299 349.376H267.979C266.4 351.552 263.968 352.64 260.683 352.64C258.166 352.64 256.224 351.829 254.859 350.208C253.536 348.587 252.875 346.368 252.875 343.552C252.875 340.011 253.963 337.557 256.139 336.192C258.358 334.827 261.835 333.931 266.571 333.504V331.968C266.571 330.773 265.974 330.176 264.779 330.176C262.902 330.176 259.787 330.795 255.435 332.032L253.899 322.88C259.872 321.344 264.48 320.576 267.723 320.576C271.008 320.576 273.376 321.28 274.827 322.688C276.278 324.096 277.003 326.315 277.003 329.344ZM264.651 345.152C266.23 345.152 267.019 344.32 267.019 342.656V339.52C265.44 339.733 264.31 340.075 263.627 340.544C262.987 340.971 262.667 341.717 262.667 342.784C262.667 344.363 263.328 345.152 264.651 345.152ZM304.763 354.816H311.355C312.123 354.816 312.507 354.475 312.507 353.792V353.536C312.507 352.896 312.123 352.576 311.355 352.576H304.763C304.08 352.576 303.739 352.917 303.739 353.6V353.856C303.739 354.496 304.08 354.816 304.763 354.816ZM307.323 320.576H322.427V327.744H317.819V328.064C319.184 329.259 319.867 330.816 319.867 332.736C319.867 339.563 316.005 342.976 308.283 342.976H305.211C304.443 342.976 304.059 343.339 304.059 344.064C304.059 344.747 304.421 345.088 305.147 345.088H313.851C318.757 345.088 321.211 347.221 321.211 351.488C321.211 354.987 320.037 357.504 317.691 359.04C315.344 360.619 312.101 361.408 307.963 361.408C303.824 361.408 300.688 360.96 298.555 360.064C296.464 359.211 295.419 357.589 295.419 355.2C295.419 353.877 296.251 352.768 297.915 351.872V351.616C295.824 350.464 294.779 348.8 294.779 346.624C294.779 344.064 296.421 342.123 299.707 340.8C298.171 339.691 297.019 338.411 296.251 336.96C295.525 335.467 295.163 333.504 295.163 331.072C295.163 327.701 296.251 325.12 298.427 323.328C300.645 321.493 303.611 320.576 307.323 320.576ZM310.139 332.864C310.139 331.499 309.968 330.517 309.627 329.92C309.328 329.28 308.752 328.96 307.899 328.96C307.045 328.96 306.448 329.28 306.107 329.92C305.808 330.517 305.659 331.456 305.659 332.736C305.659 335.339 306.427 336.64 307.963 336.64C309.413 336.64 310.139 335.381 310.139 332.864ZM350.279 323.584C352.626 321.579 355.207 320.576 358.023 320.576C360.839 320.576 362.802 321.237 363.911 322.56C365.063 323.84 365.639 325.781 365.639 328.384V352H354.759V332.032C354.759 330.965 354.29 330.432 353.351 330.432C352.156 330.432 351.154 330.731 350.343 331.328V352H339.463V332.032C339.463 330.965 338.994 330.432 338.055 330.432C336.86 330.432 335.858 330.731 335.047 331.328V352H324.295V321.344H334.087L334.727 323.584H334.983C337.33 321.579 340.103 320.576 343.303 320.576C346.546 320.576 348.658 321.771 349.639 324.16L350.279 323.584ZM392.587 329.344L392.267 342.592C392.267 343.403 392.459 343.957 392.843 344.256C393.269 344.512 393.973 344.64 394.955 344.64L393.995 352.384C391.52 352.555 390.155 352.64 389.899 352.64C386.741 352.64 384.736 351.552 383.883 349.376H383.562C381.984 351.552 379.552 352.64 376.267 352.64C373.749 352.64 371.808 351.829 370.443 350.208C369.12 348.587 368.459 346.368 368.459 343.552C368.459 340.011 369.547 337.557 371.723 336.192C373.941 334.827 377.419 333.931 382.155 333.504V331.968C382.155 330.773 381.557 330.176 380.363 330.176C378.315 330.176 375.115 330.795 370.763 332.032L369.163 322.688C374.624 321.28 379.168 320.576 382.795 320.576C386.421 320.576 388.96 321.28 390.411 322.688C391.861 324.096 392.587 326.315 392.587 329.344ZM380.235 345.152C381.813 345.152 382.603 344.32 382.603 342.656V339.52C381.024 339.733 379.893 340.075 379.211 340.544C378.571 340.971 378.251 341.717 378.251 342.784C378.251 344.363 378.912 345.152 380.235 345.152ZM408.174 352H397.614V321.664H408.174V352ZM398.446 319.232C397.55 318.464 397.102 317.227 397.102 315.52C397.102 313.813 397.55 312.555 398.446 311.744C399.342 310.933 400.814 310.528 402.862 310.528C404.91 310.528 406.382 310.933 407.278 311.744C408.174 312.555 408.622 313.813 408.622 315.52C408.622 317.184 408.174 318.421 407.278 319.232C406.382 320 404.91 320.384 402.862 320.384C400.814 320.384 399.342 320 398.446 319.232ZM412.233 344.96V310.976H422.793V341.568C422.793 342.293 422.942 342.805 423.241 343.104C423.582 343.403 424.158 343.552 424.969 343.552L424.137 352.64H420.617C417.801 352.64 415.689 352.064 414.281 350.912C412.915 349.717 412.233 347.733 412.233 344.96ZM430.05 347.648C430.05 345.941 430.498 344.683 431.394 343.872C432.29 343.019 433.719 342.592 435.682 342.592C437.645 342.592 439.074 343.019 439.97 343.872C440.866 344.683 441.314 345.984 441.314 347.776C441.314 351.061 439.437 352.704 435.682 352.704C431.927 352.704 430.05 351.019 430.05 347.648ZM459.484 329.92C458.246 329.92 457.414 330.496 456.988 331.648C456.561 332.757 456.348 334.507 456.348 336.896C456.348 339.285 456.54 341.013 456.924 342.08C457.35 343.147 458.204 343.68 459.484 343.68C460.806 343.68 462.513 343.445 464.604 342.976L465.756 351.168C462.812 352.149 460.188 352.64 457.884 352.64C453.83 352.64 450.758 351.275 448.668 348.544C446.62 345.813 445.596 341.995 445.596 337.088C445.596 332.181 446.662 328.213 448.796 325.184C450.929 322.112 454.022 320.576 458.076 320.576C461.105 320.576 463.836 321.088 466.268 322.112L465.116 331.52C462.641 330.453 460.764 329.92 459.484 329.92ZM467.658 336.576C467.658 330.944 468.725 326.869 470.858 324.352C473.034 321.835 476.405 320.576 480.97 320.576C485.578 320.576 488.927 321.813 491.018 324.288C493.109 326.763 494.154 330.837 494.154 336.512C494.154 342.144 493.13 346.24 491.082 348.8C489.034 351.36 485.685 352.64 481.034 352.64C476.383 352.64 472.991 351.36 470.858 348.8C468.725 346.24 467.658 342.165 467.658 336.576ZM483.018 330.496C482.762 329.643 482.079 329.216 480.97 329.216C479.861 329.216 479.157 329.643 478.858 330.496C478.559 331.349 478.41 333.141 478.41 335.872V337.408C478.41 340.437 478.559 342.4 478.858 343.296C479.157 344.192 479.839 344.64 480.906 344.64C482.015 344.64 482.719 344.192 483.018 343.296C483.317 342.4 483.466 340.565 483.466 337.792V335.936C483.466 333.163 483.317 331.349 483.018 330.496ZM523.467 323.584C525.813 321.579 528.395 320.576 531.211 320.576C534.027 320.576 535.989 321.237 537.099 322.56C538.251 323.84 538.827 325.781 538.827 328.384V352H527.947V332.032C527.947 330.965 527.477 330.432 526.539 330.432C525.344 330.432 524.341 330.731 523.531 331.328V352H512.651V332.032C512.651 330.965 512.181 330.432 511.243 330.432C510.048 330.432 509.045 330.731 508.235 331.328V352H497.483V321.344H507.275L507.915 323.584H508.171C510.517 321.579 513.291 320.576 516.491 320.576C519.733 320.576 521.845 321.771 522.827 324.16L523.467 323.584Z" fill="black"/>
</svg>
