<svg width="1448" height="393" viewBox="0 0 1448 393" fill="none" xmlns="http://www.w3.org/2000/svg">
<rect y="6" width="1139" height="42" fill="#FF9D23"/>
<path d="M1048.38 12.208C1051.49 10.544 1054.58 9.712 1057.65 9.712C1060.75 9.712 1063.1 10.496 1064.7 12.064C1066.3 13.632 1067.1 15.856 1067.1 18.736C1067.1 21.584 1066.59 23.92 1065.57 25.744C1064.58 27.568 1062.74 30.032 1060.05 33.136H1067.2V40H1049.58L1049.2 35.104C1052.24 31.872 1054.4 29.424 1055.68 27.76C1056.96 26.096 1057.82 24.72 1058.27 23.632C1058.72 22.544 1058.94 21.536 1058.94 20.608C1058.94 19.648 1058.7 18.912 1058.22 18.4C1057.78 17.888 1057.18 17.632 1056.45 17.632C1055.71 17.632 1055.01 17.728 1054.34 17.92C1053.41 18.144 1051.94 18.72 1049.92 19.648L1048.38 12.208ZM1086.84 29.872C1086.84 36.944 1083.7 40.48 1077.43 40.48C1074.52 40.48 1071.81 39.984 1069.32 38.992L1069.89 31.552C1073.19 32.544 1075.41 33.04 1076.56 33.04C1078.2 33.04 1079.01 32.16 1079.01 30.4C1079.01 28.608 1078.39 27.712 1077.14 27.712C1076.53 27.712 1076.07 28.032 1075.75 28.672L1069.36 27.712V10.192H1085.49V17.344H1076.8V21.616C1077.64 21.168 1078.69 20.944 1079.97 20.944C1084.55 20.944 1086.84 23.92 1086.84 29.872Z" fill="white"/>
<rect y="117" width="729" height="42" fill="#16C47F"/>
<rect y="228" width="995" height="42" fill="#FF9D23"/>
<rect y="339" width="378" height="42" fill="#16C47F"/>
<path d="M661.336 153H653.32V130.824H649.864V125.784L654.76 123.192H661.336V153ZM673.159 141.864C667.687 141.864 664.951 138.776 664.951 132.6C664.951 126.008 668.199 122.712 674.695 122.712C678.407 122.712 681.079 123.72 682.711 125.736C684.375 127.752 685.207 130.92 685.207 135.24C685.207 141.416 683.831 146.008 681.079 149.016C678.359 151.992 673.687 153.48 667.063 153.48L667.543 146.664C670.487 146.664 672.647 146.28 674.023 145.512C675.431 144.712 676.375 143.416 676.855 141.624L676.759 141.384C675.543 141.704 674.343 141.864 673.159 141.864ZM672.919 135.288C673.303 135.832 673.943 136.104 674.839 136.104C675.735 136.104 676.551 135.96 677.287 135.672C677.319 135.416 677.335 134.744 677.335 133.656C677.335 132.536 677.143 131.576 676.759 130.776C676.407 129.944 675.671 129.528 674.551 129.528C673.079 129.528 672.343 130.584 672.343 132.696C672.343 133.88 672.535 134.744 672.919 135.288Z" fill="white"/>
<path d="M909.384 237.208C912.488 235.544 915.576 234.712 918.648 234.712C921.752 234.712 924.104 235.496 925.704 237.064C927.304 238.632 928.104 240.856 928.104 243.736C928.104 246.584 927.592 248.92 926.568 250.744C925.576 252.568 923.736 255.032 921.048 258.136H928.2V265H910.584L910.2 260.104C913.24 256.872 915.4 254.424 916.68 252.76C917.96 251.096 918.824 249.72 919.272 248.632C919.72 247.544 919.944 246.536 919.944 245.608C919.944 244.648 919.704 243.912 919.224 243.4C918.776 242.888 918.184 242.632 917.448 242.632C916.712 242.632 916.008 242.728 915.336 242.92C914.408 243.144 912.936 243.72 910.92 244.648L909.384 237.208ZM939.244 234.712C945.26 234.712 948.268 237.32 948.268 242.536C948.268 244.104 947.98 245.4 947.404 246.424C946.828 247.448 945.884 248.376 944.572 249.208V249.4C946.044 250.072 947.1 250.968 947.74 252.088C948.38 253.176 948.7 254.6 948.7 256.36C948.7 259.272 947.868 261.528 946.204 263.128C944.54 264.696 942.124 265.48 938.956 265.48C937.388 265.48 936.044 265.336 934.924 265.048C933.836 264.792 932.428 264.296 930.7 263.56L932.38 256.84C935.036 257.8 936.876 258.28 937.9 258.28C939.404 258.28 940.156 257.448 940.156 255.784C940.156 253.992 939.148 253.096 937.132 253.096H934.156V246.808H937.18C938.076 246.808 938.7 246.616 939.052 246.232C939.436 245.816 939.628 245.208 939.628 244.408C939.628 242.872 938.876 242.104 937.372 242.104C936.316 242.104 934.444 242.648 931.756 243.736L929.884 237.256C931.644 236.296 933.212 235.64 934.588 235.288C935.964 234.904 937.516 234.712 939.244 234.712Z" fill="white"/>
<path d="M314.336 373H306.32V350.824H302.864V345.784L307.76 343.192H314.336V373ZM327.791 342.712C333.807 342.712 336.815 345.32 336.815 350.536C336.815 352.104 336.527 353.4 335.951 354.424C335.375 355.448 334.431 356.376 333.119 357.208V357.4C334.591 358.072 335.647 358.968 336.287 360.088C336.927 361.176 337.247 362.6 337.247 364.36C337.247 367.272 336.415 369.528 334.751 371.128C333.087 372.696 330.671 373.48 327.503 373.48C325.935 373.48 324.591 373.336 323.471 373.048C322.383 372.792 320.975 372.296 319.247 371.56L320.927 364.84C323.583 365.8 325.423 366.28 326.447 366.28C327.951 366.28 328.703 365.448 328.703 363.784C328.703 361.992 327.695 361.096 325.679 361.096H322.703V354.808H325.727C326.623 354.808 327.247 354.616 327.599 354.232C327.983 353.816 328.175 353.208 328.175 352.408C328.175 350.872 327.423 350.104 325.919 350.104C324.863 350.104 322.991 350.648 320.303 351.736L318.431 345.256C320.191 344.296 321.759 343.64 323.135 343.288C324.511 342.904 326.063 342.712 327.791 342.712Z" fill="white"/>
<path d="M781.288 135.448C781.288 145.816 777.192 151 769 151H759.112V121.192H769.192C773.576 121.192 776.68 122.424 778.504 124.888C780.36 127.32 781.288 130.84 781.288 135.448ZM768.856 144.088C770.552 144.088 771.64 143.496 772.12 142.312C772.632 141.096 772.888 139.08 772.888 136.264C772.888 133.416 772.616 131.4 772.072 130.216C771.56 129.032 770.44 128.44 768.712 128.44H767.272V144.088H768.856ZM793.306 134.296C792.474 134.296 791.93 134.584 791.674 135.16C791.418 135.704 791.29 136.552 791.29 137.704H795.466V136.552C795.466 135.048 794.746 134.296 793.306 134.296ZM793.498 127.432C796.794 127.432 799.146 128.232 800.554 129.832C801.994 131.4 802.714 133.656 802.714 136.6C802.714 136.984 802.602 138.712 802.378 141.784H791.434C791.434 144.184 792.538 145.384 794.746 145.384C795.802 145.384 797.866 145.016 800.938 144.28L801.61 150.232C798.922 151.064 796.234 151.48 793.546 151.48C790.25 151.48 787.722 150.408 785.962 148.264C784.202 146.088 783.322 143.144 783.322 139.432C783.322 131.432 786.714 127.432 793.498 127.432ZM821.788 151H804.556L804.364 146.392L811.468 134.728H804.076V128.008H821.308L821.596 132.28L814.732 144.376H821.788V151ZM833.384 134.296C832.552 134.296 832.008 134.584 831.752 135.16C831.496 135.704 831.368 136.552 831.368 137.704H835.544V136.552C835.544 135.048 834.824 134.296 833.384 134.296ZM833.576 127.432C836.872 127.432 839.224 128.232 840.632 129.832C842.072 131.4 842.792 133.656 842.792 136.6C842.792 136.984 842.68 138.712 842.456 141.784H831.512C831.512 144.184 832.616 145.384 834.824 145.384C835.88 145.384 837.944 145.016 841.016 144.28L841.688 150.232C839 151.064 836.312 151.48 833.624 151.48C830.328 151.48 827.8 150.408 826.04 148.264C824.28 146.088 823.4 143.144 823.4 139.432C823.4 131.432 826.792 127.432 833.576 127.432ZM864.506 129.688C866.266 128.184 868.202 127.432 870.314 127.432C872.426 127.432 873.898 127.928 874.73 128.92C875.594 129.88 876.026 131.336 876.026 133.288V151H867.866V136.024C867.866 135.224 867.514 134.824 866.81 134.824C865.914 134.824 865.162 135.048 864.554 135.496V151H856.394V136.024C856.394 135.224 856.042 134.824 855.338 134.824C854.442 134.824 853.69 135.048 853.082 135.496V151H845.018V128.008H852.362L852.842 129.688H853.034C854.794 128.184 856.874 127.432 859.274 127.432C861.706 127.432 863.29 128.328 864.026 130.12L864.506 129.688ZM891.197 127.48C894.205 127.48 896.205 128.36 897.197 130.12C898.189 131.848 898.685 134.84 898.685 139.096C898.685 143.32 898.157 146.44 897.101 148.456C896.045 150.472 893.981 151.48 890.909 151.48C888.509 151.48 886.829 150.856 885.869 149.608H885.677L885.197 151H878.909V120.232H886.925V128.536H887.117C888.173 127.832 889.533 127.48 891.197 127.48ZM890.333 143.8C890.461 143.224 890.541 142.664 890.573 142.12C890.605 141.576 890.621 140.552 890.621 139.048C890.621 137.512 890.509 136.344 890.285 135.544C890.061 134.712 889.597 134.296 888.893 134.296C888.221 134.296 887.549 134.488 886.877 134.872V144.808C887.485 145.096 888.061 145.24 888.605 145.24C889.181 145.24 889.581 145.144 889.805 144.952C890.061 144.728 890.237 144.344 890.333 143.8ZM909.236 138.088V151H901.268V128.008H908.276L908.756 129.4H908.948C909.684 128.568 910.42 128.04 911.156 127.816C911.924 127.56 913.156 127.432 914.852 127.432L914.516 135.112H912.308C911.06 135.112 910.228 135.304 909.812 135.688C909.428 136.072 909.236 136.872 909.236 138.088ZM915.931 139.432C915.931 135.208 916.731 132.152 918.331 130.264C919.963 128.376 922.491 127.432 925.915 127.432C929.371 127.432 931.883 128.36 933.451 130.216C935.019 132.072 935.803 135.128 935.803 139.384C935.803 143.608 935.035 146.68 933.499 148.6C931.963 150.52 929.451 151.48 925.963 151.48C922.475 151.48 919.931 150.52 918.331 148.6C916.731 146.68 915.931 143.624 915.931 139.432ZM927.451 134.872C927.259 134.232 926.747 133.912 925.915 133.912C925.083 133.912 924.555 134.232 924.331 134.872C924.107 135.512 923.995 136.856 923.995 138.904V140.056C923.995 142.328 924.107 143.8 924.331 144.472C924.555 145.144 925.067 145.48 925.867 145.48C926.699 145.48 927.227 145.144 927.451 144.472C927.675 143.8 927.787 142.424 927.787 140.344V138.952C927.787 136.872 927.675 135.512 927.451 134.872Z" fill="black"/>
<path d="M1029.86 263H1021.98L1015.79 249.128H1015.41V263H1008.11V233.192H1016.22L1022.13 247.496H1022.51V233.192H1029.86V263ZM1033.02 251.432C1033.02 247.208 1033.82 244.152 1035.42 242.264C1037.06 240.376 1039.58 239.432 1043.01 239.432C1046.46 239.432 1048.98 240.36 1050.54 242.216C1052.11 244.072 1052.9 247.128 1052.9 251.384C1052.9 255.608 1052.13 258.68 1050.59 260.6C1049.06 262.52 1046.54 263.48 1043.06 263.48C1039.57 263.48 1037.02 262.52 1035.42 260.6C1033.82 258.68 1033.02 255.624 1033.02 251.432ZM1044.54 246.872C1044.35 246.232 1043.84 245.912 1043.01 245.912C1042.18 245.912 1041.65 246.232 1041.42 246.872C1041.2 247.512 1041.09 248.856 1041.09 250.904V252.056C1041.09 254.328 1041.2 255.8 1041.42 256.472C1041.65 257.144 1042.16 257.48 1042.96 257.48C1043.79 257.48 1044.32 257.144 1044.54 256.472C1044.77 255.8 1044.88 254.424 1044.88 252.344V250.952C1044.88 248.872 1044.77 247.512 1044.54 246.872ZM1075.12 240.008L1070.23 263H1058.9L1053.95 240.008H1062.4L1064.47 254.744H1065.09L1067.3 240.008H1075.12ZM1086.18 246.296C1085.35 246.296 1084.8 246.584 1084.55 247.16C1084.29 247.704 1084.16 248.552 1084.16 249.704H1088.34V248.552C1088.34 247.048 1087.62 246.296 1086.18 246.296ZM1086.37 239.432C1089.67 239.432 1092.02 240.232 1093.43 241.832C1094.87 243.4 1095.59 245.656 1095.59 248.6C1095.59 248.984 1095.48 250.712 1095.25 253.784H1084.31C1084.31 256.184 1085.41 257.384 1087.62 257.384C1088.68 257.384 1090.74 257.016 1093.81 256.28L1094.48 262.232C1091.8 263.064 1089.11 263.48 1086.42 263.48C1083.12 263.48 1080.6 262.408 1078.84 260.264C1077.08 258.088 1076.2 255.144 1076.2 251.432C1076.2 243.432 1079.59 239.432 1086.37 239.432ZM1117.3 241.688C1119.06 240.184 1121 239.432 1123.11 239.432C1125.22 239.432 1126.7 239.928 1127.53 240.92C1128.39 241.88 1128.82 243.336 1128.82 245.288V263H1120.66V248.024C1120.66 247.224 1120.31 246.824 1119.61 246.824C1118.71 246.824 1117.96 247.048 1117.35 247.496V263H1109.19V248.024C1109.19 247.224 1108.84 246.824 1108.14 246.824C1107.24 246.824 1106.49 247.048 1105.88 247.496V263H1097.82V240.008H1105.16L1105.64 241.688H1105.83C1107.59 240.184 1109.67 239.432 1112.07 239.432C1114.5 239.432 1116.09 240.328 1116.82 242.12L1117.3 241.688ZM1143.99 239.48C1147 239.48 1149 240.36 1149.99 242.12C1150.99 243.848 1151.48 246.84 1151.48 251.096C1151.48 255.32 1150.95 258.44 1149.9 260.456C1148.84 262.472 1146.78 263.48 1143.71 263.48C1141.31 263.48 1139.63 262.856 1138.67 261.608H1138.47L1137.99 263H1131.71V232.232H1139.72V240.536H1139.91C1140.97 239.832 1142.33 239.48 1143.99 239.48ZM1143.13 255.8C1143.26 255.224 1143.34 254.664 1143.37 254.12C1143.4 253.576 1143.42 252.552 1143.42 251.048C1143.42 249.512 1143.31 248.344 1143.08 247.544C1142.86 246.712 1142.39 246.296 1141.69 246.296C1141.02 246.296 1140.35 246.488 1139.67 246.872V256.808C1140.28 257.096 1140.86 257.24 1141.4 257.24C1141.98 257.24 1142.38 257.144 1142.6 256.952C1142.86 256.728 1143.03 256.344 1143.13 255.8ZM1162.03 250.088V263H1154.07V240.008H1161.07L1161.55 241.4H1161.75C1162.48 240.568 1163.22 240.04 1163.95 239.816C1164.72 239.56 1165.95 239.432 1167.65 239.432L1167.31 247.112H1165.11C1163.86 247.112 1163.03 247.304 1162.61 247.688C1162.23 248.072 1162.03 248.872 1162.03 250.088ZM1168.73 251.432C1168.73 247.208 1169.53 244.152 1171.13 242.264C1172.76 240.376 1175.29 239.432 1178.71 239.432C1182.17 239.432 1184.68 240.36 1186.25 242.216C1187.82 244.072 1188.6 247.128 1188.6 251.384C1188.6 255.608 1187.83 258.68 1186.3 260.6C1184.76 262.52 1182.25 263.48 1178.76 263.48C1175.27 263.48 1172.73 262.52 1171.13 260.6C1169.53 258.68 1168.73 255.624 1168.73 251.432ZM1180.25 246.872C1180.06 246.232 1179.54 245.912 1178.71 245.912C1177.88 245.912 1177.35 246.232 1177.13 246.872C1176.9 247.512 1176.79 248.856 1176.79 250.904V252.056C1176.79 254.328 1176.9 255.8 1177.13 256.472C1177.35 257.144 1177.86 257.48 1178.66 257.48C1179.5 257.48 1180.02 257.144 1180.25 256.472C1180.47 255.8 1180.58 254.424 1180.58 252.344V250.952C1180.58 248.872 1180.47 247.512 1180.25 246.872Z" fill="black"/>
<path d="M398.888 348.312C400.744 345.912 403.768 344.712 407.96 344.712C412.152 344.712 415.144 345.896 416.936 348.264C418.76 350.632 419.672 354.488 419.672 359.832C419.672 365.144 418.744 369.08 416.888 371.64C415.032 374.2 412.024 375.48 407.864 375.48C403.704 375.48 400.712 374.216 398.888 371.688C397.064 369.16 396.152 365.24 396.152 359.928C396.152 354.584 397.064 350.712 398.888 348.312ZM411.416 359.832C411.416 356.888 411.176 354.904 410.696 353.88C410.248 352.824 409.304 352.296 407.864 352.296C406.456 352.296 405.544 352.824 405.128 353.88C404.712 354.904 404.504 356.872 404.504 359.784V360.936C404.504 364.04 404.728 366.088 405.176 367.08C405.656 368.04 406.6 368.52 408.008 368.52C409.448 368.52 410.376 368.056 410.792 367.128C411.208 366.2 411.416 364.28 411.416 361.368V359.832ZM427.98 375.48C424.172 375.48 422.268 373.368 422.268 369.144V352.008H430.428V367.176C430.428 367.976 430.78 368.376 431.484 368.376C432.38 368.376 433.132 368.152 433.74 367.704V352.008H441.804V374.904H434.172V373.224H433.98C432.22 374.728 430.22 375.48 427.98 375.48ZM457.634 375.048C455.266 375.336 453.202 375.48 451.442 375.48C449.714 375.48 448.354 375.032 447.362 374.136C446.402 373.208 445.922 371.624 445.922 369.384V358.248H443.618V352.296H446.306L446.738 347.88H453.986V352.296H458.258L457.922 358.248H453.938V367.8C453.938 368.472 454.258 368.808 454.898 368.808C454.962 368.808 455.954 368.76 457.874 368.664L457.634 375.048ZM465.621 375.48C461.813 375.48 459.909 373.368 459.909 369.144V352.008H468.069V367.176C468.069 367.976 468.421 368.376 469.125 368.376C470.021 368.376 470.773 368.152 471.381 367.704V352.008H479.445V374.904H471.813V373.224H471.621C469.861 374.728 467.861 375.48 465.621 375.48ZM494.603 351.48C497.611 351.48 499.611 352.36 500.603 354.12C501.595 355.848 502.091 358.84 502.091 363.096C502.091 367.32 501.563 370.44 500.507 372.456C499.451 374.472 497.387 375.48 494.315 375.48C491.915 375.48 490.235 374.856 489.275 373.608H489.083L488.603 375H482.315V344.232H490.331V352.536H490.523C491.579 351.832 492.939 351.48 494.603 351.48ZM493.739 367.8C493.867 367.224 493.947 366.664 493.979 366.12C494.011 365.576 494.027 364.552 494.027 363.048C494.027 361.512 493.915 360.344 493.691 359.544C493.467 358.712 493.003 358.296 492.299 358.296C491.627 358.296 490.955 358.488 490.283 358.872V368.808C490.891 369.096 491.467 369.24 492.011 369.24C492.587 369.24 492.987 369.144 493.211 368.952C493.467 368.728 493.643 368.344 493.739 367.8ZM512.642 362.088V375H504.674V352.008H511.682L512.162 353.4H512.354C513.09 352.568 513.826 352.04 514.562 351.816C515.33 351.56 516.562 351.432 518.258 351.432L517.922 359.112H515.714C514.466 359.112 513.634 359.304 513.218 359.688C512.834 360.072 512.642 360.872 512.642 362.088ZM519.337 363.432C519.337 359.208 520.137 356.152 521.737 354.264C523.369 352.376 525.897 351.432 529.321 351.432C532.777 351.432 535.289 352.36 536.857 354.216C538.425 356.072 539.209 359.128 539.209 363.384C539.209 367.608 538.441 370.68 536.905 372.6C535.369 374.52 532.857 375.48 529.369 375.48C525.881 375.48 523.337 374.52 521.737 372.6C520.137 370.68 519.337 367.624 519.337 363.432ZM530.857 358.872C530.665 358.232 530.153 357.912 529.321 357.912C528.489 357.912 527.961 358.232 527.737 358.872C527.513 359.512 527.401 360.856 527.401 362.904V364.056C527.401 366.328 527.513 367.8 527.737 368.472C527.961 369.144 528.473 369.48 529.273 369.48C530.105 369.48 530.633 369.144 530.857 368.472C531.081 367.8 531.193 366.424 531.193 364.344V362.952C531.193 360.872 531.081 359.512 530.857 358.872Z" fill="black"/>
</svg>
