<svg width="151" height="129" viewBox="0 0 151 129" fill="none" xmlns="http://www.w3.org/2000/svg">
<path d="M17.2572 15.8769C15.9297 16.2904 14.9341 17.0346 14.9341 17.5308C14.9341 18.7712 38.9945 44.7365 41.8154 46.3904C44.8022 48.2096 51.6885 48.4577 54.5923 46.8865C55.5879 46.3077 62.5572 40.2712 70.1072 33.4904C84.6264 20.425 84.8753 20.0115 79.3995 18.275C76.9105 17.4481 32.6061 14.8019 23.6456 14.9673C21.4055 14.9673 18.5017 15.3808 17.2572 15.8769Z" fill="#113F67"/>
<path d="M106.198 18.0269C102.381 18.5231 95.9099 20.8385 92.1764 22.9058C90.1852 24.0635 82.1374 30.7615 74.3385 37.7904C66.5396 44.8192 58.6577 51.3519 56.8324 52.2615C54.5923 53.4192 52.0203 53.9154 48.3698 53.9154C40.4879 53.9981 37.1692 51.6 22.8159 35.8058C16.0956 28.3635 10.2879 22.3269 9.95605 22.3269C8.54561 22.3269 7.46704 30.3481 6.63737 47.0519L5.72473 64.6654L7.79891 69.0481C9.37528 72.4385 10.6198 73.9269 13.6896 75.7462L17.589 77.9788L45.4659 79.2192C60.8978 79.9635 74.8363 80.2115 76.6615 79.8808C78.9846 79.4673 80.9758 78.1442 83.7967 75.25L87.6962 71.2808L95.578 71.0327C102.464 70.7019 103.875 70.4538 106.779 68.4692C108.853 67.1462 110.844 64.8308 112.006 62.5154C113.167 59.9519 114.329 58.7115 115.407 58.7115C117.481 58.7115 123.206 53.5019 124.451 50.4423C125.114 48.7885 126.691 47.4654 128.931 46.3904C132.664 44.7365 136.647 40.6846 137.393 37.625C137.725 36.3846 138.638 35.5577 140.131 35.3096C145.275 34.2346 150.17 27.7846 150.17 21.9962C150.17 19.35 149.921 19.0192 147.515 18.6885C144.197 18.1923 109.102 17.6135 106.198 18.0269ZM143.533 24.8077C143.533 26.5442 139.385 29.7692 137.145 29.8519C135.9 29.9346 130.839 29.8519 125.944 29.7692L116.984 29.6038V32.4981V35.3923L123.538 35.6404C130.756 35.9712 131.918 36.4673 130.175 38.5346C127.769 41.5115 124.285 42.1731 114.163 41.5942L104.538 41.0981V43.9923V46.8865L111.259 47.3827C114.992 47.7135 118.228 48.1269 118.477 48.375C118.726 48.6231 117.979 49.8635 116.735 51.1038C114.412 53.3365 114.412 53.3365 103.792 53.0885C93.3379 52.9231 93.089 52.9231 92.5912 54.7423C91.5956 58.4635 91.8445 58.5462 99.6434 59.2077L107.193 59.7865L104.621 62.35C102.215 64.7481 101.552 64.9135 94.9143 65.2442L87.7791 65.4923L88.2769 59.8692C88.5258 56.7269 88.9407 49.0365 89.2725 42.8346L89.7703 31.5058L93.172 29.2731C100.39 24.4769 103.211 24.0635 124.285 23.9808C137.145 23.9808 143.533 24.2288 143.533 24.8077Z" fill="#113F67"/>
<path d="M56.9984 97.4115C56.1687 98.2385 55.5879 99.5615 55.5879 100.306C55.5879 101.05 55.2561 101.712 54.7583 101.712C54.3434 101.712 53.9286 102.29 53.9286 102.952C53.9286 103.613 54.3434 104.192 54.7583 104.192C55.2561 104.192 55.5879 106.508 55.5879 109.567C55.5879 114.777 55.6709 114.942 57.6621 114.942C59.6533 114.942 59.7363 114.777 59.7363 109.567C59.7363 105.35 59.9852 104.192 60.9808 104.192C61.6445 104.192 62.2253 103.613 62.2253 102.952C62.2253 102.29 61.6445 101.712 60.9808 101.712C60.3171 101.712 59.7363 101.133 59.7363 100.471C59.7363 99.8096 60.3171 99.2308 60.9808 99.2308C61.6445 99.2308 62.2253 98.4865 62.2253 97.5769C62.2253 95.4269 58.9066 95.3442 56.9984 97.4115Z" fill="#113F67"/>
<path d="M116.735 97.0808C116.154 98.5692 116.818 99.2308 118.809 99.2308C119.721 99.2308 120.302 98.6519 120.302 97.5769C120.302 95.675 117.398 95.2615 116.735 97.0808Z" fill="#113F67"/>
<path d="M25.8858 98.0731C23.6457 99.6442 23.4797 103.365 25.5539 105.267C26.3836 106.012 28.2918 106.921 29.7023 107.169C32.6061 107.748 34.4314 109.485 33.6017 110.808C32.772 112.131 28.2089 111.8 27.7111 110.394C27.2133 109.071 23.2308 108.658 23.2308 109.898C23.2308 110.229 23.9775 111.552 24.9731 112.792C28.1259 116.762 37.3352 115.025 37.3352 110.394C37.3352 107.004 36.4226 105.929 32.2742 104.606C29.2874 103.613 28.2089 102.787 28.2089 101.629C28.2089 100.471 28.7896 100.058 30.6149 100.058C32.0253 100.058 33.3528 100.388 33.6017 100.885C33.8506 101.298 34.8462 101.712 35.7589 101.712C37.7501 101.712 37.7501 100.471 35.6759 98.4039C33.6847 96.4192 28.5407 96.1712 25.8858 98.0731Z" fill="#113F67"/>
<path d="M79.6483 105.763C79.6483 114.281 79.7313 114.942 81.3077 114.942C82.7181 114.942 82.884 114.281 83.1329 109.319L83.3818 103.779L85.539 109.154C88.5258 116.348 89.9362 116.265 93.006 108.74L95.3291 102.952V108.906C95.4121 114.363 95.578 114.942 97.0714 114.942C98.6478 114.942 98.7307 114.363 98.7307 105.763V96.6673L96.4906 96.9154C94.5824 97.1635 93.8357 97.9904 92.0104 102.373C90.8489 105.267 89.5214 107.583 89.1895 107.583C88.7747 107.583 87.5302 105.267 86.2857 102.373C84.4604 97.9904 83.7137 97.0808 81.8884 96.9154L79.6483 96.6673V105.763Z" fill="#113F67"/>
<path d="M123.621 105.846C123.621 114.363 123.704 114.942 125.28 114.942C126.857 114.942 126.94 114.363 126.94 105.846C126.94 97.3288 126.857 96.75 125.28 96.75C123.704 96.75 123.621 97.3288 123.621 105.846Z" fill="#113F67"/>
<path d="M42.977 101.877C41.8154 102.29 40.5709 103.2 40.322 103.862C39.9072 104.854 40.5709 105.019 43.7237 104.854C48.3698 104.523 49.5314 106.26 45.1341 106.921C41.4836 107.5 39.8242 108.823 39.8242 111.138C39.8242 113.537 41.3176 114.942 43.9726 114.942C45.1341 114.942 46.5445 114.529 47.1253 113.95C47.872 113.206 48.1209 113.206 48.1209 113.95C48.1209 114.529 48.8676 114.942 49.7803 114.942C51.2737 114.942 51.4396 114.363 51.4396 109.237C51.4396 105.681 51.0248 103.283 50.444 102.787C48.7017 101.381 45.383 100.967 42.977 101.877ZM48.1209 109.485C48.1209 110.973 46.8764 112.462 45.6319 112.462C43.8066 112.462 42.811 111.221 43.5577 109.981C44.0555 109.237 48.1209 108.74 48.1209 109.485Z" fill="#113F67"/>
<path d="M67.5352 102.042C61.1467 104.854 63.3868 114.942 70.439 114.942C73.2599 114.942 76.3297 113.123 76.3297 111.387C76.3297 110.477 73.1769 110.725 72.5962 111.635C71.6835 113.04 68.9456 112.544 68.033 110.808C67.2033 109.237 67.3692 109.154 72.2643 109.154H77.3253L76.7445 106.838C75.6659 102.29 71.7665 100.223 67.5352 102.042ZM72.8451 105.598C73.011 106.342 72.2643 106.673 70.605 106.673C68.1159 106.673 67.3692 105.929 68.6137 104.688C69.5264 103.862 72.4302 104.44 72.8451 105.598Z" fill="#113F67"/>
<path d="M105.783 101.463C103.875 101.96 102.049 103.283 102.049 104.192C102.049 105.185 105.285 105.763 105.866 104.937C106.613 103.779 109.516 104.11 109.516 105.35C109.516 106.094 108.272 106.756 106.198 107.087C103.128 107.583 101.22 109.319 101.22 111.552C101.22 114.281 107.193 116.1 109.35 113.95C110.097 113.206 110.346 113.206 110.346 113.95C110.346 114.529 111.093 114.942 112.005 114.942C113.499 114.942 113.665 114.363 113.665 109.733C113.665 106.756 113.25 103.944 112.669 103.2C111.425 101.712 108.272 100.967 105.783 101.463ZM109.516 110.808C108.521 112.627 105.368 113.04 105.368 111.387C105.368 109.733 106.198 109.154 108.438 109.154C110.18 109.154 110.263 109.402 109.516 110.808Z" fill="#113F67"/>
<path d="M116.984 108.327C116.984 114.363 117.149 114.942 118.643 114.942C120.136 114.942 120.302 114.363 120.302 108.327C120.302 102.29 120.136 101.712 118.643 101.712C117.149 101.712 116.984 102.29 116.984 108.327Z" fill="#113F67"/>
</svg>
