<svg width="146" height="67" viewBox="0 0 146 67" fill="none" xmlns="http://www.w3.org/2000/svg">
<path d="M12.2572 1.87696C10.9297 2.29042 9.93408 3.03465 9.93408 3.53081C9.93408 4.77119 33.9945 30.7366 36.8154 32.3904C39.8022 34.2097 46.6885 34.4577 49.5923 32.8866C50.5879 32.3077 57.5572 26.2712 65.1072 19.4904C79.6264 6.42504 79.8753 6.01158 74.3995 4.27504C71.9105 3.44812 27.6061 0.801962 18.6456 0.967346C16.4055 0.967346 13.5017 1.38081 12.2572 1.87696Z" fill="#0088FF"/>
<path d="M101.198 4.02694C97.3812 4.52309 90.9098 6.83848 87.1763 8.90579C85.1851 10.0635 77.1372 16.7616 69.3383 23.7904C61.5394 30.8192 53.6576 37.3519 51.8323 38.2616C49.5922 39.4192 47.0202 39.9154 43.3697 39.9154C35.4878 39.9981 32.1691 37.6 17.8158 21.8058C11.0955 14.3635 5.2878 8.32694 4.95593 8.32694C3.54549 8.32694 2.46692 16.3481 1.63725 33.0519L0.724609 50.6654L2.79879 55.0481C4.37516 58.4385 5.61966 59.9269 8.68944 61.7462L12.5889 63.9789L40.4658 65.2192C55.8977 65.9635 69.8361 66.2116 71.6614 65.8808C73.9845 65.4673 75.9757 64.1442 78.7966 61.25L82.696 57.2808L90.5779 57.0327C97.4642 56.7019 98.8746 56.4539 101.778 54.4692C103.853 53.1462 105.844 50.8308 107.005 48.5154C108.167 45.9519 109.328 44.7116 110.407 44.7116C112.481 44.7116 118.206 39.5019 119.45 36.4423C120.114 34.7885 121.691 33.4654 123.931 32.3904C127.664 30.7366 131.647 26.6846 132.393 23.625C132.725 22.3846 133.638 21.5577 135.131 21.3096C140.275 20.2346 145.17 13.7846 145.17 7.99617C145.17 5.35002 144.921 5.01925 142.515 4.68848C139.197 4.19233 104.102 3.61348 101.198 4.02694ZM138.533 10.8077C138.533 12.5442 134.385 15.7692 132.144 15.8519C130.9 15.9346 125.839 15.8519 120.944 15.7692L111.983 15.6039V18.4981V21.3923L118.538 21.6404C125.756 21.9712 126.917 22.4673 125.175 24.5346C122.769 27.5116 119.285 28.1731 109.163 27.5942L99.5383 27.0981V29.9923V32.8866L106.259 33.3827C109.992 33.7135 113.228 34.1269 113.477 34.375C113.726 34.6231 112.979 35.8635 111.735 37.1039C109.411 39.3366 109.411 39.3366 98.7916 39.0885C88.3378 38.9231 88.0889 38.9231 87.5911 40.7423C86.5955 44.4635 86.8444 44.5462 94.6433 45.2077L102.193 45.7866L99.6213 48.35C97.2153 50.7481 96.5515 50.9135 89.9142 51.2442L82.779 51.4923L83.2768 45.8692C83.5257 42.7269 83.9405 35.0366 84.2724 28.8346L84.7702 17.5058L88.1719 15.2731C95.39 10.4769 98.2109 10.0635 119.285 9.98079C132.144 9.98079 138.533 10.2289 138.533 10.8077Z" fill="#0088FF"/>
</svg>
